<svg width="49" height="50" viewBox="0 0 49 50" fill="none" xmlns="http://www.w3.org/2000/svg">
<path d="M24.0884 0.195274C23.8204 0.41008 22.9685 1.91369 22.5091 2.9877C21.5423 5.23335 21.7816 6.76626 23.2078 7.47901L23.7343 7.73286V9.04121V10.3495H22.6431C21.0159 10.3495 21.1499 9.91994 21.1499 15.0459V19.2345H18.4698H15.7897V12.1558C15.7897 5.20406 15.7897 5.07713 15.5983 4.88186C15.359 4.63777 14.9187 4.62801 14.6315 4.8721L14.4018 5.05761L14.3731 12.1461L14.354 19.2345L14.0859 19.2833C12.8703 19.5372 12.1907 19.8692 11.4633 20.5819C10.7933 21.2361 10.4104 21.8219 10.152 22.6225C9.96053 23.2084 9.95096 23.4329 9.95096 27.7485V32.2691L9.2235 32.396C7.48145 32.6694 6.06483 33.8703 5.43309 35.5985C5.22252 36.155 5.22252 36.3015 5.18423 40.6952L5.15551 45.206H2.81044H0.465361L0.235639 45.4501C-0.0419416 45.7235 -0.0706568 46.1531 0.13035 46.9147C0.513219 48.3792 1.57568 49.463 3.00187 49.8535C3.72932 50.0488 45.2707 50.0488 45.9981 49.8535C47.4243 49.463 48.4868 48.3792 48.8697 46.9147C49.0707 46.1531 49.0419 45.7235 48.7644 45.4501L48.5346 45.206H46.1896H43.8445L43.8158 40.6952C43.7775 36.3015 43.7775 36.155 43.5669 35.5985C42.9352 33.8703 41.5186 32.6694 39.7765 32.396L39.049 32.2691V27.7485C39.049 23.4329 39.0395 23.2084 38.848 22.6225C38.5896 21.8121 38.2067 21.2361 37.5176 20.5624C36.9241 19.9766 36.0435 19.4981 35.3639 19.381C34.579 19.2443 34.6556 19.752 34.6269 14.7432C34.5982 10.5058 34.5886 10.2617 34.4163 10.0664C34.177 9.80277 33.6602 9.79301 33.4017 10.0566C33.2199 10.2421 33.2103 10.3788 33.2103 14.7432V19.2345H30.5302H27.8501V15.0459C27.8501 9.91994 27.9937 10.3691 26.3378 10.33L25.2179 10.3007L25.1892 9.01191L25.1604 7.73286L25.4955 7.6157C26.0123 7.44972 26.5866 6.9713 26.7972 6.53193C27.3715 5.39934 27.0365 3.83714 25.6678 1.3474C25.1509 0.390549 24.8159 0 24.5 0C24.4043 0 24.2224 0.0878754 24.0884 0.195274ZM24.9594 3.00723C25.4955 3.9836 25.773 4.82328 25.6965 5.24312C25.5146 6.25854 24.1554 6.67838 23.5428 5.88752C23.227 5.47745 23.1982 5.00879 23.4375 4.3058C23.6385 3.71021 24.3947 2.24566 24.5 2.24566C24.5287 2.24566 24.7297 2.58739 24.9594 3.00723ZM26.4143 12.5464V13.2787H24.5H22.5857V12.5464V11.8141H24.5H26.4143V12.5464ZM26.4143 15.4755V16.2078H24.5H22.5857V15.4755V14.7432H24.5H26.4143V15.4755ZM26.4143 18.4534V19.2345H24.5H22.5857V18.4534V17.6723H24.5H26.4143V18.4534ZM35.6798 21.031C36.436 21.3923 37.1347 22.1441 37.4123 22.8959C37.5271 23.1986 37.6133 23.4817 37.6133 23.5306C37.6133 23.5794 37.4697 23.6868 37.2974 23.7747C36.704 24.0578 36.2637 24.5362 35.5075 25.6786C34.5886 27.0748 34.311 27.3384 33.7367 27.3384C33.1624 27.3384 32.8178 27.0064 31.9181 25.6298C30.8556 23.9895 30.3005 23.5794 29.0944 23.5794C27.9075 23.5794 27.2662 24.0969 26.0985 25.9422C25.4189 27.026 25.0552 27.3384 24.5 27.3384C23.9448 27.3384 23.5811 27.026 22.9015 25.9422C22.1836 24.8096 21.5615 24.0969 21.0063 23.7942C20.4512 23.4915 19.3504 23.5013 18.7665 23.8137C17.8955 24.2824 17.6754 24.7803 18.1348 25.2392C18.4124 25.5321 18.7761 25.5517 19.1303 25.2978C19.4557 25.0537 19.8386 24.9561 20.1353 25.0342C20.5373 25.1416 20.9393 25.5712 21.6668 26.694C22.7388 28.3538 23.3418 28.803 24.5 28.803C25.6582 28.803 26.2612 28.3538 27.3332 26.694C28.2808 25.2294 28.7116 24.878 29.3433 25.0342C29.8123 25.1611 30.0612 25.415 30.7791 26.528C31.899 28.266 32.4445 28.7053 33.574 28.7834C34.78 28.8713 35.4979 28.3441 36.6944 26.5085C37.0964 25.8934 37.4697 25.3661 37.5176 25.3368C37.575 25.2978 37.6133 26.5768 37.6133 28.7932V32.3179H24.5H11.3867V28.7932C11.3867 26.4597 11.4154 25.2978 11.4824 25.3368C11.5399 25.3661 11.894 25.8934 12.2865 26.489C12.6789 27.0943 13.1575 27.7485 13.3585 27.9633C14.3922 29.0471 16.029 29.0764 17.1106 28.0414C17.4552 27.7192 17.5126 27.3286 17.2733 26.9772C16.9862 26.5573 16.5459 26.6061 15.9524 27.1041C15.761 27.2701 15.56 27.3384 15.2633 27.3384C14.689 27.3384 14.3348 27.0064 13.4829 25.6688C12.7842 24.585 12.296 24.0578 11.7122 23.7747C11.5303 23.6868 11.3867 23.5794 11.3867 23.5306C11.3867 23.4817 11.4729 23.1986 11.5877 22.9057C11.9419 21.9293 12.9278 21.0506 13.9424 20.8065C14.1529 20.7577 18.8431 20.7186 24.6914 20.7284L35.0768 20.7479L35.6798 21.031ZM40.3987 34.0851C40.6954 34.2316 41.1165 34.505 41.3271 34.71C41.71 35.0615 42.3034 36.0965 42.3034 36.4089C42.3034 36.5065 42.0929 36.6628 41.7578 36.7995C41.0208 37.1314 40.4561 37.7465 39.4032 39.3771C38.2067 41.2322 37.7951 41.5934 36.8763 41.5934C35.9765 41.5934 35.6606 41.2908 34.2249 39.1037C33.2773 37.6587 32.8178 37.1607 32.0712 36.7897C31.7075 36.6042 31.4778 36.5651 30.6738 36.5651C29.7932 36.5651 29.6783 36.5847 29.2093 36.858C28.5488 37.2291 27.831 38.0199 27.1322 39.1623C25.974 41.0662 25.505 41.5056 24.5957 41.5739C23.6385 41.6423 23.1025 41.1736 21.8582 39.1525C21.1499 38.0004 20.4512 37.2193 19.7907 36.858C19.3791 36.6335 19.1398 36.5651 18.5081 36.5358C16.8426 36.448 16.0194 37.0533 14.5262 39.4942C13.5116 41.1345 12.9756 41.5934 12.0567 41.5934C11.1761 41.5934 10.8124 41.2615 9.52023 39.2501C8.54391 37.7465 7.9696 37.1217 7.24215 36.7995C6.92629 36.6628 6.69656 36.5065 6.69656 36.4187C6.69656 36.1648 7.13686 35.2958 7.4623 34.9151C7.81646 34.505 8.43862 34.1144 9.0225 33.9192C9.34794 33.8215 12.2482 33.802 24.6436 33.8118L39.8626 33.8313L40.3987 34.0851ZM19.3504 38.3031C19.6184 38.5081 20.0874 39.1135 20.7192 40.0801C21.7816 41.7106 22.4038 42.4136 23.1121 42.7651C23.5141 42.9701 23.7247 43.0092 24.5 43.0092C25.2657 43.0092 25.4859 42.9701 25.8879 42.7748C26.5771 42.4331 27.3428 41.5837 28.1277 40.3046C28.9509 38.9475 29.3816 38.43 29.8697 38.1761C30.3005 37.9418 31.0949 37.9223 31.4778 38.1176C31.8894 38.3421 32.4637 39.0451 33.3443 40.4023C34.7035 42.5112 35.5649 43.1166 37.0868 43.0385C37.6707 42.9994 37.9674 42.9311 38.3407 42.7358C38.9916 42.4038 39.8435 41.447 40.571 40.246C41.174 39.2501 41.8823 38.3519 42.2173 38.1664C42.3896 38.0785 42.3992 38.1761 42.3992 41.6423V45.206H40.4369C38.4747 45.206 38.4652 45.206 38.2354 45.4501C38.1014 45.577 37.9962 45.8016 37.9962 45.9383C37.9962 46.075 38.1014 46.2996 38.2354 46.4265L38.4652 46.6706H42.9639H47.4626L47.3573 46.983C47.2999 47.1588 47.051 47.5005 46.8022 47.7543C45.9694 48.6038 48.1039 48.5257 24.5 48.5257C0.896089 48.5257 3.03059 48.6038 2.19785 47.7543C1.94898 47.5005 1.70012 47.1588 1.64268 46.983L1.5374 46.6706H18.4315H35.3256L35.5745 46.4167C35.7659 46.2214 35.8042 46.114 35.7564 45.8602C35.7277 45.6844 35.6032 45.4696 35.4979 45.372C35.3065 45.2158 34.4738 45.206 20.9489 45.206H6.60085V41.6423C6.60085 38.2738 6.61042 38.0785 6.77314 38.1664C7.18472 38.3909 7.74945 39.1427 8.75449 40.7538C9.25222 41.5641 10.1041 42.4429 10.6688 42.7456C11.0326 42.9311 11.3389 42.9994 11.9132 43.0385C13.4446 43.1166 14.2965 42.5112 15.6653 40.3827C16.6607 38.8303 16.8522 38.596 17.3499 38.2445C17.6658 38.0297 17.8381 37.9809 18.3358 37.9809C18.8622 37.9809 18.9867 38.0199 19.3504 38.3031Z" fill="#133F68"/>
<path d="M14.5165 0.566556C14.392 0.703248 14.3538 0.94734 14.3538 1.6308C14.3538 2.42166 14.3729 2.52906 14.5739 2.71457C14.7941 2.92938 15.0621 2.97819 15.3588 2.87079C15.8852 2.66575 15.9618 0.810648 15.4641 0.468918C15.2535 0.322463 14.6696 0.390809 14.5165 0.566556Z" fill="#133F68"/>
<path d="M17.5317 2.2845C17.0052 2.81174 16.9095 2.94843 16.9191 3.22182C16.9287 3.6319 17.2254 3.93457 17.6082 3.93457C17.8475 3.93457 18.0294 3.81741 18.4888 3.33898C18.9674 2.86056 19.0727 2.68481 19.0727 2.43096C19.0727 2.07946 18.6899 1.65962 18.3548 1.65962C18.2496 1.65962 17.8954 1.92324 17.5317 2.2845Z" fill="#133F68"/>
<path d="M11.3774 1.8845C11.1381 2.07001 10.9849 2.44104 11.0424 2.67537C11.0711 2.79253 11.3487 3.14402 11.6645 3.4467C12.2197 3.99347 12.4781 4.0911 12.8706 3.94465C13.0237 3.8763 13.3013 3.41741 13.3013 3.22213C13.3013 3.15379 13.0141 2.80229 12.66 2.43127C12.0091 1.73805 11.722 1.61112 11.3774 1.8845Z" fill="#133F68"/>
<path d="M18.1826 5.27271C17.8954 5.56562 17.9241 6.0831 18.24 6.33695C18.441 6.50294 18.6325 6.54199 19.1493 6.54199C19.5035 6.54199 19.9055 6.50294 20.0395 6.44436C20.4989 6.26861 20.6042 5.60468 20.2309 5.23365C20.1161 5.11649 19.8768 5.07743 19.2259 5.07743C18.4984 5.07743 18.3453 5.10673 18.1826 5.27271Z" fill="#133F68"/>
<path d="M9.92211 5.35045C9.7211 5.57501 9.71153 6.19013 9.91253 6.3854C10.1231 6.60997 10.439 6.66855 11.1951 6.61973C11.9705 6.58068 12.1906 6.42446 12.1906 5.91674C12.1906 5.31139 11.9705 5.1747 10.9559 5.1747C10.2284 5.1747 10.0465 5.20399 9.92211 5.35045Z" fill="#133F68"/>
<path d="M33.5262 5.56495C33.2008 5.70164 33.1146 5.97502 33.1146 6.83423C33.1146 7.54698 33.1433 7.64462 33.3539 7.85942C33.4784 7.99611 33.6985 8.10352 33.8325 8.10352C33.9665 8.10352 34.1867 7.99611 34.3111 7.85942C34.5312 7.64462 34.5504 7.54698 34.5504 6.80494C34.5504 6.16054 34.5121 5.93597 34.3877 5.77975C34.1867 5.53566 33.8134 5.43802 33.5262 5.56495Z" fill="#133F68"/>
<path d="M36.302 7.44954C35.8138 7.94749 35.699 8.133 35.699 8.37709C35.699 8.78717 35.9957 9.08008 36.3977 9.08008C36.6657 9.08008 36.8189 8.98244 37.307 8.4552C37.9866 7.74245 38.0536 7.4593 37.6516 7.07852C37.24 6.68797 36.9912 6.75631 36.302 7.44954Z" fill="#133F68"/>
<path d="M30.071 7.15714C29.6977 7.55745 29.7934 7.88942 30.4634 8.57288C31.143 9.25634 31.4302 9.33445 31.8226 8.93414C32.215 8.54359 32.1385 8.25068 31.4589 7.54769C30.7697 6.85447 30.4347 6.75683 30.071 7.15714Z" fill="#133F68"/>
<path d="M17.1776 7.85977C16.7947 8.25031 16.8617 8.53346 17.5317 9.23645C18.0199 9.76369 18.173 9.86133 18.441 9.86133C18.8526 9.86133 19.1398 9.56842 19.1398 9.14858C19.1398 8.87519 19.044 8.71897 18.5272 8.22102C17.838 7.53756 17.5604 7.46922 17.1776 7.85977Z" fill="#133F68"/>
<path d="M11.7025 8.3284C11.0229 9.03139 10.9464 9.3243 11.3388 9.71485C11.7313 10.1249 12.028 10.0468 12.7076 9.34382C13.3776 8.6506 13.4733 8.29911 13.0809 7.92809C12.6884 7.5473 12.3821 7.64494 11.7025 8.3284Z" fill="#133F68"/>
<path d="M36.9431 10.4475C36.6751 10.7209 36.6942 11.1407 37.0005 11.4336C37.2207 11.6387 37.3355 11.668 38.0438 11.668C38.6947 11.668 38.8766 11.6289 39.0393 11.4825C39.2786 11.2579 39.3073 10.7795 39.0872 10.467C38.9532 10.2718 38.867 10.2522 38.0343 10.2522C37.259 10.2522 37.1058 10.2815 36.9431 10.4475Z" fill="#133F68"/>
<path d="M28.7113 10.5452C28.472 10.7893 28.4624 11.2384 28.7017 11.5313C28.874 11.7461 28.9602 11.7656 29.7642 11.7656C30.5682 11.7656 30.6544 11.7461 30.8267 11.5313C31.066 11.2384 31.0564 10.7893 30.8171 10.5452C30.6544 10.3792 30.5012 10.3499 29.7642 10.3499C29.0272 10.3499 28.874 10.3792 28.7113 10.5452Z" fill="#133F68"/>
<path d="M36.0151 12.9369C35.7471 13.1322 35.6609 13.513 35.8332 13.845C36.0725 14.3136 36.9053 15.0361 37.202 15.0361C37.7859 15.0361 38.1209 14.4991 37.8624 13.9817C37.6902 13.6399 37.0201 13.0053 36.6947 12.8881C36.3693 12.7612 36.2544 12.7612 36.0151 12.9369Z" fill="#133F68"/>
<path d="M30.6163 13.3469C30.1664 13.7765 29.8601 14.2159 29.8601 14.4405C29.8601 14.4893 29.975 14.665 30.109 14.831C30.4727 15.2704 30.779 15.2313 31.382 14.6846C32.0425 14.0792 32.2148 13.7472 32.052 13.3665C31.8032 12.7318 31.2672 12.722 30.6163 13.3469Z" fill="#133F68"/>
</svg>
