<svg width="53" height="50" viewBox="0 0 53 50" fill="none" xmlns="http://www.w3.org/2000/svg">
<path d="M1.4249 0.257271C0.861566 0.559284 0.276143 1.27517 0.110457 1.8792C0.0441829 2.15884 0 8.03132 0 19.6868C0.0110457 33.9262 0.0331371 37.1588 0.15464 37.5056C0.3866 38.1432 0.839474 38.6801 1.43594 38.9821L1.97718 39.2617H10.9905C18.9544 39.2617 19.9927 39.2841 19.9927 39.4295C19.9927 39.519 19.7166 40.7271 19.3742 42.1141L18.7556 44.6309H17.408C15.8175 44.6421 15.1879 44.7651 14.7571 45.1678C14.26 45.6488 14.1385 46.0626 14.1385 47.3714C14.1385 48.7025 14.249 49.094 14.7902 49.6085L15.1437 49.9441L26.3882 49.9776L37.6327 50L37.9973 49.7539C38.7152 49.2506 38.8257 48.9933 38.8588 47.6174C38.903 46.1745 38.7925 45.6823 38.3176 45.2125C37.8647 44.7651 37.2351 44.6309 35.5672 44.6309H34.2528L34.1423 44.2058C33.8109 42.9866 33.0267 39.6309 33.0267 39.4631C33.0267 39.2729 33.579 39.2617 42.1836 39.2394L51.3405 39.2058L51.8154 38.8702C52.3788 38.4676 52.7543 37.953 52.909 37.349C52.9863 37.0805 53.0084 30.9396 52.9973 19.3848L52.9642 1.82327L52.6328 1.28635C52.445 0.984341 52.0805 0.581654 51.8154 0.391499L51.3405 0.0559273L26.6312 0.0223694L1.91091 0L1.4249 0.257271ZM51.0202 2.08054L51.2521 2.38255V17.2931V32.2148H26.5097H1.76731V17.2931V2.38255L1.99927 2.08054L2.22019 1.78971H26.5097H50.7992L51.0202 2.08054ZM51.2521 35.4474C51.2521 36.7338 51.23 36.9128 51.0202 37.1812L50.7992 37.472H26.5097H2.22019L1.99927 37.1812C1.78941 36.9128 1.76731 36.7338 1.76731 35.4474V34.0045H26.5097H51.2521V35.4474ZM31.1047 39.396C31.1489 39.4631 31.4692 40.6711 31.8117 42.0805L32.4523 44.6309H26.5097H20.5671L21.2078 42.0805C21.5502 40.6711 21.8705 39.4631 21.9147 39.396C22.0252 39.2058 30.9943 39.2058 31.1047 39.396ZM37.1136 47.3378V48.2103H26.5097H15.9058V47.3378V46.4765H26.5097H37.1136V47.3378Z" fill="#133F68"/>
</svg>
