<svg width="50" height="50" viewBox="0 0 50 50" fill="none" xmlns="http://www.w3.org/2000/svg">
<path d="M23.8048 24.9373V28.6967H20.0658C19.318 28.6967 18.8195 29.198 18.8195 29.9499C18.8195 30.7018 19.318 31.203 20.0658 31.203H23.8048V34.9624C23.8048 35.7143 24.3033 36.2155 25.0511 36.2155C25.7989 36.2155 26.2974 35.7143 26.2974 34.9624V31.203H30.0364C30.7842 31.203 31.2827 30.7018 31.2827 29.9499C31.2827 29.198 30.7842 28.6967 30.0364 28.6967H26.2974V24.9373C26.2974 24.1855 25.7989 23.6842 25.0511 23.6842C24.3033 23.6842 23.8048 24.1855 23.8048 24.9373ZM49.479 21.4286L25.7989 0.37594C25.3003 -0.125313 24.5525 -0.125313 24.054 0.37594L0.373897 21.4286C-0.124632 21.9298 -0.124632 22.6817 0.373897 23.183C0.872426 23.6842 1.62022 23.6842 2.11875 23.183L5.10992 20.6767V48.7469C5.10992 49.4987 5.60845 50 6.35624 50H43.7459C44.4937 50 44.9922 49.4987 44.9922 48.7469V20.6767L47.9834 23.183C48.2327 23.4336 48.4819 23.4336 48.7312 23.4336C48.9805 23.4336 49.479 23.183 49.7283 22.9323C50.2268 22.6817 49.9775 21.6792 49.479 21.4286ZM42.4996 47.4937H7.60257V18.4211L25.0511 2.88221L42.4996 18.4211V47.4937Z" fill="#133F68"/>
</svg>
