<svg width="49" height="52" viewBox="0 0 49 52" fill="none" xmlns="http://www.w3.org/2000/svg">
<mask id="path-1-outside-1_57_8704" maskUnits="userSpaceOnUse" x="0" y="0" width="49" height="52" fill="black">
<rect fill="white" width="49" height="52"/>
<path d="M23.4947 1.11812C22.7097 1.31358 22.2501 1.61655 20.3353 3.16072C19.3396 3.96212 18.2865 4.73421 17.9993 4.87103L17.4823 5.11536L14.9835 5.0274C13.6048 4.97853 12.2358 4.96876 11.9198 5.00785C10.7327 5.174 9.45933 6.08291 8.87532 7.18728C8.74128 7.46093 8.32003 8.77054 7.94665 10.1192C7.46795 11.8198 7.18073 12.6798 6.99883 12.9535C6.80735 13.2369 6.1276 13.7647 4.58619 14.8202C3.39902 15.6411 2.2693 16.4914 2.07782 16.7162C1.27361 17.6446 0.861926 19.0324 1.04383 20.215C1.10127 20.5473 1.51295 21.8471 1.9725 23.0981C3.07351 26.1082 3.07351 25.8932 1.9725 28.9033C1.51295 30.1543 1.10127 31.4542 1.04383 31.7962C0.861926 32.969 1.25446 34.3177 2.06824 35.2755C2.27887 35.5198 3.34158 36.3212 4.58619 37.1813C6.1276 38.2368 6.80735 38.7645 6.99883 39.0479C7.18073 39.3216 7.46795 40.1816 7.94665 41.8822C8.32003 43.2211 8.74128 44.5405 8.87532 44.8141C9.45933 45.9185 10.7327 46.8274 11.9198 46.9936C12.2358 47.0326 13.6048 47.0229 14.9835 46.974L17.4823 46.886L17.9993 47.1304C18.2865 47.2672 19.3588 48.0588 20.3928 48.8896C21.4842 49.7691 22.4799 50.4924 22.7767 50.6194C23.9734 51.1472 25.1702 51.1276 26.3478 50.551C26.6829 50.3849 27.7168 49.6225 28.7125 48.8211C29.6891 48.0295 30.7135 47.2672 31.0007 47.1304L31.5177 46.886L34.0165 46.974C35.3952 47.0229 36.7642 47.0326 37.0802 46.9936C38.2673 46.8274 39.5407 45.9185 40.1247 44.8141C40.2587 44.5405 40.68 43.2211 41.0534 41.8822C41.5321 40.1816 41.8193 39.3216 42.0012 39.0479C42.1927 38.7645 42.8724 38.2368 44.4138 37.1813C45.6584 36.3212 46.7211 35.5198 46.9318 35.2755C47.7455 34.3177 48.1381 32.969 47.9562 31.7864C47.8987 31.4542 47.487 30.1543 47.0275 28.9033C45.9265 25.8932 45.9265 26.1082 47.0275 23.0981C47.487 21.8471 47.8987 20.5473 47.9562 20.2052C48.1381 19.0324 47.7455 17.6837 46.9318 16.7259C46.7211 16.4816 45.6584 15.6802 44.4138 14.8202C42.8724 13.7647 42.1927 13.2369 42.0012 12.9535C41.8193 12.6798 41.5321 11.8198 41.0534 10.1192C40.68 8.77054 40.2587 7.46093 40.1247 7.18728C39.5407 6.08291 38.2673 5.174 37.0802 5.00785C36.7642 4.96876 35.3952 4.97853 34.0165 5.0274L31.5177 5.11536L31.0007 4.87103C30.7135 4.73421 29.6891 3.9719 28.7125 3.19004C27.736 2.39841 26.7403 1.64587 26.4914 1.50905C25.534 1.01062 24.4713 0.873791 23.4947 1.11812ZM25.3234 2.6916C25.6776 2.79911 26.2808 3.21936 27.7551 4.41169C30.656 6.73771 30.5603 6.70839 33.9112 6.59111C35.1845 6.54225 36.4196 6.51293 36.6589 6.53247C37.5206 6.60089 38.3822 7.17751 38.7748 7.93982C38.8705 8.13528 39.2439 9.32761 39.5885 10.5786C39.9332 11.8296 40.3257 13.0903 40.4693 13.3639C40.8523 14.1751 41.3884 14.654 43.5234 16.1102C44.6149 16.8628 45.6297 17.6055 45.7733 17.7521C46.185 18.2115 46.4626 18.9347 46.4531 19.5993C46.4531 20.0684 46.3382 20.4886 45.9073 21.7005C44.6436 25.17 44.6627 25.1016 44.6627 26.0007C44.6627 26.8998 44.6436 26.8314 45.9073 30.3009C46.3382 31.5128 46.4531 31.933 46.4531 32.4022C46.4626 33.0667 46.185 33.7899 45.7733 34.2493C45.6297 34.3959 44.6149 35.1387 43.5234 35.8912C41.3884 37.3474 40.8523 37.8263 40.4693 38.6375C40.3257 38.9111 39.9332 40.1719 39.5885 41.4228C39.2439 42.6738 38.8705 43.8661 38.7748 44.0616C38.5163 44.56 38.0376 45.0096 37.4727 45.2637C37.0227 45.4689 36.8887 45.4787 35.4143 45.4396C34.5431 45.4201 33.1931 45.4005 32.3985 45.4005C30.9911 45.4005 30.9528 45.4103 30.3401 45.7035C29.9763 45.8794 28.9136 46.6515 27.7551 47.5897C25.7255 49.2218 25.3234 49.4564 24.5 49.4564C23.6862 49.4564 23.2745 49.2218 21.2449 47.5897C20.0768 46.6515 19.0333 45.8794 18.6599 45.7035C18.0472 45.4103 18.0089 45.4005 16.6015 45.4005C15.8164 45.4005 14.4569 45.4201 13.5857 45.4396C12.1113 45.4787 11.9773 45.4689 11.5273 45.2637C10.9624 45.0096 10.4837 44.56 10.2252 44.0616C10.1295 43.8661 9.75612 42.6738 9.41146 41.4228C9.0668 40.1719 8.67427 38.9111 8.53066 38.6375C8.1477 37.8263 7.61156 37.3474 5.47657 35.8912C4.38514 35.1387 3.3703 34.3959 3.22669 34.2493C2.81501 33.7899 2.53737 33.0667 2.54694 32.4022C2.54694 31.933 2.66183 31.5128 3.09266 30.3009C4.10749 27.5058 4.30855 26.8803 4.35642 26.2646C4.42343 25.4925 4.27025 24.9257 3.29371 22.238C2.6714 20.5277 2.54694 20.0879 2.54694 19.5993C2.53737 18.9347 2.81501 18.2115 3.22669 17.7521C3.3703 17.6055 4.38514 16.8628 5.47657 16.1102C7.61156 14.654 8.1477 14.1751 8.53066 13.3639C8.67427 13.0903 9.0668 11.8296 9.41146 10.5786C9.75612 9.32761 10.1295 8.13528 10.2252 7.93982C10.6178 7.17751 11.4794 6.60089 12.3411 6.53247C12.5804 6.51293 13.8155 6.54225 15.0888 6.59111C18.4397 6.70839 18.3535 6.73771 21.2544 4.40192C23.265 2.77956 23.6479 2.56456 24.4617 2.55478C24.6723 2.54501 25.0649 2.61342 25.3234 2.6916Z"/>
</mask>
<path d="M23.4947 1.11812C22.7097 1.31358 22.2501 1.61655 20.3353 3.16072C19.3396 3.96212 18.2865 4.73421 17.9993 4.87103L17.4823 5.11536L14.9835 5.0274C13.6048 4.97853 12.2358 4.96876 11.9198 5.00785C10.7327 5.174 9.45933 6.08291 8.87532 7.18728C8.74128 7.46093 8.32003 8.77054 7.94665 10.1192C7.46795 11.8198 7.18073 12.6798 6.99883 12.9535C6.80735 13.2369 6.1276 13.7647 4.58619 14.8202C3.39902 15.6411 2.2693 16.4914 2.07782 16.7162C1.27361 17.6446 0.861926 19.0324 1.04383 20.215C1.10127 20.5473 1.51295 21.8471 1.9725 23.0981C3.07351 26.1082 3.07351 25.8932 1.9725 28.9033C1.51295 30.1543 1.10127 31.4542 1.04383 31.7962C0.861926 32.969 1.25446 34.3177 2.06824 35.2755C2.27887 35.5198 3.34158 36.3212 4.58619 37.1813C6.1276 38.2368 6.80735 38.7645 6.99883 39.0479C7.18073 39.3216 7.46795 40.1816 7.94665 41.8822C8.32003 43.2211 8.74128 44.5405 8.87532 44.8141C9.45933 45.9185 10.7327 46.8274 11.9198 46.9936C12.2358 47.0326 13.6048 47.0229 14.9835 46.974L17.4823 46.886L17.9993 47.1304C18.2865 47.2672 19.3588 48.0588 20.3928 48.8896C21.4842 49.7691 22.4799 50.4924 22.7767 50.6194C23.9734 51.1472 25.1702 51.1276 26.3478 50.551C26.6829 50.3849 27.7168 49.6225 28.7125 48.8211C29.6891 48.0295 30.7135 47.2672 31.0007 47.1304L31.5177 46.886L34.0165 46.974C35.3952 47.0229 36.7642 47.0326 37.0802 46.9936C38.2673 46.8274 39.5407 45.9185 40.1247 44.8141C40.2587 44.5405 40.68 43.2211 41.0534 41.8822C41.5321 40.1816 41.8193 39.3216 42.0012 39.0479C42.1927 38.7645 42.8724 38.2368 44.4138 37.1813C45.6584 36.3212 46.7211 35.5198 46.9318 35.2755C47.7455 34.3177 48.1381 32.969 47.9562 31.7864C47.8987 31.4542 47.487 30.1543 47.0275 28.9033C45.9265 25.8932 45.9265 26.1082 47.0275 23.0981C47.487 21.8471 47.8987 20.5473 47.9562 20.2052C48.1381 19.0324 47.7455 17.6837 46.9318 16.7259C46.7211 16.4816 45.6584 15.6802 44.4138 14.8202C42.8724 13.7647 42.1927 13.2369 42.0012 12.9535C41.8193 12.6798 41.5321 11.8198 41.0534 10.1192C40.68 8.77054 40.2587 7.46093 40.1247 7.18728C39.5407 6.08291 38.2673 5.174 37.0802 5.00785C36.7642 4.96876 35.3952 4.97853 34.0165 5.0274L31.5177 5.11536L31.0007 4.87103C30.7135 4.73421 29.6891 3.9719 28.7125 3.19004C27.736 2.39841 26.7403 1.64587 26.4914 1.50905C25.534 1.01062 24.4713 0.873791 23.4947 1.11812ZM25.3234 2.6916C25.6776 2.79911 26.2808 3.21936 27.7551 4.41169C30.656 6.73771 30.5603 6.70839 33.9112 6.59111C35.1845 6.54225 36.4196 6.51293 36.6589 6.53247C37.5206 6.60089 38.3822 7.17751 38.7748 7.93982C38.8705 8.13528 39.2439 9.32761 39.5885 10.5786C39.9332 11.8296 40.3257 13.0903 40.4693 13.3639C40.8523 14.1751 41.3884 14.654 43.5234 16.1102C44.6149 16.8628 45.6297 17.6055 45.7733 17.7521C46.185 18.2115 46.4626 18.9347 46.4531 19.5993C46.4531 20.0684 46.3382 20.4886 45.9073 21.7005C44.6436 25.17 44.6627 25.1016 44.6627 26.0007C44.6627 26.8998 44.6436 26.8314 45.9073 30.3009C46.3382 31.5128 46.4531 31.933 46.4531 32.4022C46.4626 33.0667 46.185 33.7899 45.7733 34.2493C45.6297 34.3959 44.6149 35.1387 43.5234 35.8912C41.3884 37.3474 40.8523 37.8263 40.4693 38.6375C40.3257 38.9111 39.9332 40.1719 39.5885 41.4228C39.2439 42.6738 38.8705 43.8661 38.7748 44.0616C38.5163 44.56 38.0376 45.0096 37.4727 45.2637C37.0227 45.4689 36.8887 45.4787 35.4143 45.4396C34.5431 45.4201 33.1931 45.4005 32.3985 45.4005C30.9911 45.4005 30.9528 45.4103 30.3401 45.7035C29.9763 45.8794 28.9136 46.6515 27.7551 47.5897C25.7255 49.2218 25.3234 49.4564 24.5 49.4564C23.6862 49.4564 23.2745 49.2218 21.2449 47.5897C20.0768 46.6515 19.0333 45.8794 18.6599 45.7035C18.0472 45.4103 18.0089 45.4005 16.6015 45.4005C15.8164 45.4005 14.4569 45.4201 13.5857 45.4396C12.1113 45.4787 11.9773 45.4689 11.5273 45.2637C10.9624 45.0096 10.4837 44.56 10.2252 44.0616C10.1295 43.8661 9.75612 42.6738 9.41146 41.4228C9.0668 40.1719 8.67427 38.9111 8.53066 38.6375C8.1477 37.8263 7.61156 37.3474 5.47657 35.8912C4.38514 35.1387 3.3703 34.3959 3.22669 34.2493C2.81501 33.7899 2.53737 33.0667 2.54694 32.4022C2.54694 31.933 2.66183 31.5128 3.09266 30.3009C4.10749 27.5058 4.30855 26.8803 4.35642 26.2646C4.42343 25.4925 4.27025 24.9257 3.29371 22.238C2.6714 20.5277 2.54694 20.0879 2.54694 19.5993C2.53737 18.9347 2.81501 18.2115 3.22669 17.7521C3.3703 17.6055 4.38514 16.8628 5.47657 16.1102C7.61156 14.654 8.1477 14.1751 8.53066 13.3639C8.67427 13.0903 9.0668 11.8296 9.41146 10.5786C9.75612 9.32761 10.1295 8.13528 10.2252 7.93982C10.6178 7.17751 11.4794 6.60089 12.3411 6.53247C12.5804 6.51293 13.8155 6.54225 15.0888 6.59111C18.4397 6.70839 18.3535 6.73771 21.2544 4.40192C23.265 2.77956 23.6479 2.56456 24.4617 2.55478C24.6723 2.54501 25.0649 2.61342 25.3234 2.6916Z" fill="#133F68"/>
<path d="M23.4947 1.11812C22.7097 1.31358 22.2501 1.61655 20.3353 3.16072C19.3396 3.96212 18.2865 4.73421 17.9993 4.87103L17.4823 5.11536L14.9835 5.0274C13.6048 4.97853 12.2358 4.96876 11.9198 5.00785C10.7327 5.174 9.45933 6.08291 8.87532 7.18728C8.74128 7.46093 8.32003 8.77054 7.94665 10.1192C7.46795 11.8198 7.18073 12.6798 6.99883 12.9535C6.80735 13.2369 6.1276 13.7647 4.58619 14.8202C3.39902 15.6411 2.2693 16.4914 2.07782 16.7162C1.27361 17.6446 0.861926 19.0324 1.04383 20.215C1.10127 20.5473 1.51295 21.8471 1.9725 23.0981C3.07351 26.1082 3.07351 25.8932 1.9725 28.9033C1.51295 30.1543 1.10127 31.4542 1.04383 31.7962C0.861926 32.969 1.25446 34.3177 2.06824 35.2755C2.27887 35.5198 3.34158 36.3212 4.58619 37.1813C6.1276 38.2368 6.80735 38.7645 6.99883 39.0479C7.18073 39.3216 7.46795 40.1816 7.94665 41.8822C8.32003 43.2211 8.74128 44.5405 8.87532 44.8141C9.45933 45.9185 10.7327 46.8274 11.9198 46.9936C12.2358 47.0326 13.6048 47.0229 14.9835 46.974L17.4823 46.886L17.9993 47.1304C18.2865 47.2672 19.3588 48.0588 20.3928 48.8896C21.4842 49.7691 22.4799 50.4924 22.7767 50.6194C23.9734 51.1472 25.1702 51.1276 26.3478 50.551C26.6829 50.3849 27.7168 49.6225 28.7125 48.8211C29.6891 48.0295 30.7135 47.2672 31.0007 47.1304L31.5177 46.886L34.0165 46.974C35.3952 47.0229 36.7642 47.0326 37.0802 46.9936C38.2673 46.8274 39.5407 45.9185 40.1247 44.8141C40.2587 44.5405 40.68 43.2211 41.0534 41.8822C41.5321 40.1816 41.8193 39.3216 42.0012 39.0479C42.1927 38.7645 42.8724 38.2368 44.4138 37.1813C45.6584 36.3212 46.7211 35.5198 46.9318 35.2755C47.7455 34.3177 48.1381 32.969 47.9562 31.7864C47.8987 31.4542 47.487 30.1543 47.0275 28.9033C45.9265 25.8932 45.9265 26.1082 47.0275 23.0981C47.487 21.8471 47.8987 20.5473 47.9562 20.2052C48.1381 19.0324 47.7455 17.6837 46.9318 16.7259C46.7211 16.4816 45.6584 15.6802 44.4138 14.8202C42.8724 13.7647 42.1927 13.2369 42.0012 12.9535C41.8193 12.6798 41.5321 11.8198 41.0534 10.1192C40.68 8.77054 40.2587 7.46093 40.1247 7.18728C39.5407 6.08291 38.2673 5.174 37.0802 5.00785C36.7642 4.96876 35.3952 4.97853 34.0165 5.0274L31.5177 5.11536L31.0007 4.87103C30.7135 4.73421 29.6891 3.9719 28.7125 3.19004C27.736 2.39841 26.7403 1.64587 26.4914 1.50905C25.534 1.01062 24.4713 0.873791 23.4947 1.11812ZM25.3234 2.6916C25.6776 2.79911 26.2808 3.21936 27.7551 4.41169C30.656 6.73771 30.5603 6.70839 33.9112 6.59111C35.1845 6.54225 36.4196 6.51293 36.6589 6.53247C37.5206 6.60089 38.3822 7.17751 38.7748 7.93982C38.8705 8.13528 39.2439 9.32761 39.5885 10.5786C39.9332 11.8296 40.3257 13.0903 40.4693 13.3639C40.8523 14.1751 41.3884 14.654 43.5234 16.1102C44.6149 16.8628 45.6297 17.6055 45.7733 17.7521C46.185 18.2115 46.4626 18.9347 46.4531 19.5993C46.4531 20.0684 46.3382 20.4886 45.9073 21.7005C44.6436 25.17 44.6627 25.1016 44.6627 26.0007C44.6627 26.8998 44.6436 26.8314 45.9073 30.3009C46.3382 31.5128 46.4531 31.933 46.4531 32.4022C46.4626 33.0667 46.185 33.7899 45.7733 34.2493C45.6297 34.3959 44.6149 35.1387 43.5234 35.8912C41.3884 37.3474 40.8523 37.8263 40.4693 38.6375C40.3257 38.9111 39.9332 40.1719 39.5885 41.4228C39.2439 42.6738 38.8705 43.8661 38.7748 44.0616C38.5163 44.56 38.0376 45.0096 37.4727 45.2637C37.0227 45.4689 36.8887 45.4787 35.4143 45.4396C34.5431 45.4201 33.1931 45.4005 32.3985 45.4005C30.9911 45.4005 30.9528 45.4103 30.3401 45.7035C29.9763 45.8794 28.9136 46.6515 27.7551 47.5897C25.7255 49.2218 25.3234 49.4564 24.5 49.4564C23.6862 49.4564 23.2745 49.2218 21.2449 47.5897C20.0768 46.6515 19.0333 45.8794 18.6599 45.7035C18.0472 45.4103 18.0089 45.4005 16.6015 45.4005C15.8164 45.4005 14.4569 45.4201 13.5857 45.4396C12.1113 45.4787 11.9773 45.4689 11.5273 45.2637C10.9624 45.0096 10.4837 44.56 10.2252 44.0616C10.1295 43.8661 9.75612 42.6738 9.41146 41.4228C9.0668 40.1719 8.67427 38.9111 8.53066 38.6375C8.1477 37.8263 7.61156 37.3474 5.47657 35.8912C4.38514 35.1387 3.3703 34.3959 3.22669 34.2493C2.81501 33.7899 2.53737 33.0667 2.54694 32.4022C2.54694 31.933 2.66183 31.5128 3.09266 30.3009C4.10749 27.5058 4.30855 26.8803 4.35642 26.2646C4.42343 25.4925 4.27025 24.9257 3.29371 22.238C2.6714 20.5277 2.54694 20.0879 2.54694 19.5993C2.53737 18.9347 2.81501 18.2115 3.22669 17.7521C3.3703 17.6055 4.38514 16.8628 5.47657 16.1102C7.61156 14.654 8.1477 14.1751 8.53066 13.3639C8.67427 13.0903 9.0668 11.8296 9.41146 10.5786C9.75612 9.32761 10.1295 8.13528 10.2252 7.93982C10.6178 7.17751 11.4794 6.60089 12.3411 6.53247C12.5804 6.51293 13.8155 6.54225 15.0888 6.59111C18.4397 6.70839 18.3535 6.73771 21.2544 4.40192C23.265 2.77956 23.6479 2.56456 24.4617 2.55478C24.6723 2.54501 25.0649 2.61342 25.3234 2.6916Z" stroke="#133F68" mask="url(#path-1-outside-1_57_8704)"/>
<path d="M19.1866 24.4569L19.2938 24.6827C19.0721 24.788 18.8893 24.8539 18.6314 24.8901C18.3852 24.9247 18.0736 24.9316 17.5973 24.9316C17.0664 24.9316 16.7591 24.9304 16.4963 24.8764C16.2277 24.8213 16.0115 24.7125 15.6649 24.5379L15.6566 24.5337C15.6566 24.5337 15.6565 24.5337 15.6564 24.5336C13.9057 23.6554 12.8983 21.712 13.2344 19.8295C13.5373 18.119 14.6038 16.8544 16.2281 16.2571L16.2281 16.257L16.232 16.2557C16.6391 16.1135 17.0105 16.0753 17.7599 16.105M19.1866 24.4569L19.2935 24.6828C20.948 23.9002 21.9737 22.3187 21.9737 20.5183C21.9737 18.7998 20.9902 17.2279 19.4409 16.463L19.4391 16.4621L19.439 16.4621C19.1606 16.3274 18.9545 16.2411 18.703 16.1884C18.4578 16.137 18.1792 16.1196 17.7599 16.105M19.1866 24.4569C20.7567 23.7141 21.7237 22.2188 21.7237 20.5183C21.7237 18.8959 20.795 17.4104 19.3302 16.6872C18.7845 16.4233 18.593 16.3842 17.7505 16.3549M19.1866 24.4569C18.7749 24.6523 18.5547 24.6816 17.5973 24.6816C16.5155 24.6816 16.4868 24.6719 15.7687 24.3103C14.1124 23.4795 13.1646 21.6422 13.4805 19.8732L16.3144 16.4917C16.6782 16.3646 17.0133 16.3256 17.7505 16.3549M17.7599 16.105C17.7597 16.105 17.7595 16.105 17.7592 16.105L17.7505 16.3549M17.7599 16.105C17.7601 16.1051 17.7603 16.1051 17.7605 16.1051L17.7505 16.3549M18.6261 18.3676L18.6252 18.3672C18.4381 18.274 18.3004 18.22 18.1581 18.1883C18.0152 18.1564 17.8553 18.1443 17.6215 18.149L17.6183 18.149C17.0011 18.1536 16.4825 18.3319 16.0865 18.6449C15.6907 18.9577 15.4026 19.4166 15.2655 20.0079L15.2652 20.009C15.0149 21.0665 15.6085 22.2959 16.6011 22.7541L16.6013 22.7542C16.8627 22.8751 17.2236 22.9357 17.6018 22.9242C17.9791 22.9128 18.3477 22.8305 18.623 22.69L18.6235 22.6897C20.0006 21.9913 20.3765 20.147 19.369 18.9497C19.2079 18.7594 18.8712 18.4884 18.6261 18.3676Z" fill="#133F68" stroke="#133F68" stroke-width="0.5"/>
<path d="M14.7716 34.9232C14.7716 34.855 14.779 34.7773 14.8185 34.6802C14.8543 34.5921 14.9129 34.4973 14.9984 34.3825C15.1688 34.1538 15.4828 33.7984 16.0568 33.1893C17.209 31.9665 19.4446 29.6845 23.7756 25.2682C28.1017 20.8472 30.3372 18.5651 31.535 17.3889C32.1316 16.803 32.4799 16.4824 32.7041 16.3083C32.8166 16.221 32.91 16.1608 32.9975 16.1237C33.0943 16.0826 33.1724 16.0748 33.2408 16.0748C33.517 16.0748 33.7808 16.1572 33.9651 16.3454C34.1486 16.5327 34.228 16.7992 34.228 17.0774C34.228 17.1456 34.2206 17.2233 34.1811 17.3204C34.1453 17.4085 34.0867 17.5033 34.0012 17.6181C33.8308 17.8469 33.5168 18.2023 32.9429 18.8113C31.7906 20.0341 29.555 22.3162 25.224 26.7324C20.8979 31.1535 18.6624 33.4355 17.4646 34.6117C16.868 35.1976 16.5198 35.5182 16.2955 35.6923C16.1831 35.7796 16.0896 35.8398 16.0021 35.8769C15.9053 35.918 15.8272 35.9258 15.7588 35.9258C15.4758 35.9258 15.22 35.8422 15.0357 35.654C14.8521 35.4666 14.7716 35.2083 14.7716 34.9232Z" fill="#133F68" stroke="#133F68" stroke-width="0.5"/>
<path d="M29.989 27.2207L29.9903 27.2202C30.3805 27.0856 30.9064 27.0233 31.4169 27.0233C31.9274 27.0233 32.4533 27.0856 32.8436 27.2202L32.8452 27.2208C34.8444 27.9252 36.1316 30.1038 35.7657 32.1709C35.5131 33.6544 34.6509 34.8272 33.3427 35.4793L33.335 35.4832C32.9884 35.6578 32.7722 35.7666 32.5036 35.8218C32.2408 35.8757 31.9335 35.877 31.4026 35.877C30.8831 35.877 30.5732 35.8729 30.3189 35.8265C30.0531 35.7779 29.8547 35.6845 29.559 35.5384L29.5583 35.538C27.543 34.5353 26.5711 32.2693 27.2283 30.1013C27.6155 28.8122 28.7177 27.6671 29.989 27.2207ZM32.3987 29.2472L32.3986 29.2472C32.1372 29.1263 31.7763 29.0657 31.3982 29.0771C31.0208 29.0885 30.6522 29.1709 30.3769 29.3114L30.3765 29.3116C28.6169 30.2053 28.624 32.7579 30.4034 33.644L30.4034 33.644L30.4056 33.6451C30.6317 33.7605 30.758 33.8122 30.8917 33.837C31.0291 33.8625 31.1903 33.8626 31.4917 33.8431L31.4917 33.8431L31.4957 33.8429C31.8783 33.8243 32.1706 33.7645 32.4195 33.6594C32.6667 33.5551 32.8843 33.4005 33.1106 33.1743C34.2449 32.0059 33.867 29.9261 32.3987 29.2472Z" fill="#133F68" stroke="#133F68" stroke-width="0.5"/>
</svg>
