<svg width="55" height="50" viewBox="0 0 55 50" fill="none" xmlns="http://www.w3.org/2000/svg">
<path d="M20.7829 0.102684C19.9554 0.232174 19.6115 0.361664 18.9452 0.804096C18.2143 1.28969 17.4728 2.26087 17.2256 3.03782C17.1074 3.4155 17.0321 4.18166 16.9999 5.40104L16.9354 7.21391H12.0884C6.88669 7.21391 6.47829 7.25708 5.14563 7.78584C2.55553 8.84335 0.706994 11.0771 0.148134 13.8503C-0.00232791 14.6273 -0.0130752 16.2136 0.00841938 29.0116L0.0406613 43.3096L0.330838 44.1729C1.31959 47.0541 3.38307 49.0072 6.22036 49.7626L7.13388 50H27.5H47.8661L48.7796 49.7626C51.6169 49.0072 53.6804 47.0541 54.6692 44.1729L54.9593 43.3096L54.9916 29.0116C55.0131 16.2136 55.0023 14.6273 54.8519 13.8503C54.293 11.0771 52.4445 8.84335 49.8544 7.78584C48.5217 7.25708 48.1133 7.21391 42.9009 7.21391H38.0538L38.0109 5.29313C37.9786 3.60974 37.9356 3.30759 37.7207 2.75726C37.1941 1.41918 35.7432 0.307713 34.26 0.0918922C33.4325 -0.0375977 21.546 -0.0268097 20.7829 0.102684ZM34.6469 2.32562C35.1521 2.59539 35.453 2.90833 35.7324 3.43708C35.8936 3.73923 35.9366 4.1385 35.9689 5.50895L36.0119 7.21391H34.9909H33.9806L33.9161 6.41539C33.8517 5.46578 33.6045 4.93703 32.9596 4.33273C32.1643 3.59895 32.1321 3.59895 27.5 3.59895C22.8572 3.59895 22.7389 3.62053 21.8899 4.38669C21.2988 4.92624 21.0624 5.45499 20.9764 6.40459L20.9119 7.21391H19.8909H18.8807L18.9237 5.5629C18.9559 4.1277 18.9989 3.85793 19.2138 3.40471C19.3535 3.12415 19.633 2.76805 19.8372 2.60618C20.5572 2.05584 20.7077 2.04505 27.7149 2.06664C34.1418 2.08821 34.2171 2.08821 34.6469 2.32562ZM31.4658 5.71397C31.8849 5.86505 32.0139 6.09166 32.0139 6.71753V7.21391H27.5H22.9861V6.69595C22.9861 6.1564 23.1044 5.919 23.4698 5.72477C23.7707 5.55211 30.9929 5.55211 31.4658 5.71397ZM48.9301 9.6095C50.7034 10.3001 52.0898 11.7245 52.6809 13.4619L52.9174 14.1741L52.9496 28.3642C52.9711 38.7666 52.9496 42.7161 52.8636 43.1478C52.423 45.2412 50.7894 46.9893 48.5647 47.7447C47.9951 47.9389 47.1461 47.9497 28.1986 47.9821C15.5383 48.0037 8.10113 47.9713 7.54227 47.9066C5.36057 47.6368 3.57652 46.3958 2.6845 44.5182C2.44806 44.0326 2.21161 43.342 2.14713 42.9967C2.06115 42.565 2.02891 37.871 2.02891 28.5368C2.02891 13.3863 2.00742 14.0554 2.67375 12.6957C3.28634 11.4548 4.22136 10.4836 5.38207 9.90086C6.68249 9.24261 5.38207 9.27498 27.7149 9.29657L48.1885 9.31815L48.9301 9.6095Z" fill="#133F68"/>
<path d="M16.3227 14.2394C14.0335 14.7034 12.5396 17.099 13.1415 19.3543C13.3886 20.2823 13.6251 20.606 15.2372 22.1599C16.097 22.9908 17.2254 24.0807 17.7413 24.5879L18.6763 25.5051L16.8063 31.7099C15.7745 35.1198 14.9255 38.1089 14.9255 38.3355C14.9255 38.7348 15.0007 38.8427 16.4516 40.3103C17.3974 41.2599 18.1067 41.8965 18.3109 41.9613C18.6978 42.0908 19.074 41.9829 19.3426 41.6807C19.4501 41.562 20.7398 39.2636 22.2337 36.5658C23.7168 33.8681 24.9742 31.6128 25.0172 31.5696C25.1139 31.4725 29.8213 35.9076 29.7998 36.0802C29.789 36.1342 29.5418 37.0298 29.2302 38.055C28.9292 39.0693 28.682 40.0405 28.682 40.2024C28.682 40.4182 28.9722 40.7851 30.004 41.8318C31.1862 43.0296 31.3689 43.1699 31.7128 43.1807C31.9277 43.1807 32.2072 43.1159 32.3469 43.0188C32.5726 42.8785 34.6468 39.2851 35.4958 37.5694C35.6785 37.1917 35.8935 36.9435 36.1299 36.8248C36.3126 36.7277 37.6453 35.9939 39.0639 35.1954C42.5675 33.2314 42.5353 33.2962 40.6008 31.3214C39.7732 30.4905 39.1929 29.9833 39.0102 29.951C38.8382 29.9186 38.0322 30.1128 36.9575 30.4366C35.9795 30.7387 35.0552 31.0085 34.9047 31.0301C34.6575 31.0732 34.3566 30.7927 32.4114 28.7208C30.4661 26.6597 30.2189 26.3468 30.3694 26.2389C30.4661 26.1633 32.7338 24.89 35.3991 23.4009C38.0644 21.9225 40.3321 20.6168 40.4181 20.5197C40.6653 20.2283 40.7405 19.9046 40.6115 19.5809C40.5578 19.4298 39.8485 18.5989 39.0424 17.7356C37.656 16.2465 37.3336 15.9983 36.8392 16.0307C36.7318 16.0414 33.873 16.9047 30.4553 17.9514C27.0485 18.9982 24.2327 19.8399 24.1897 19.8183C24.1467 19.7967 23.2224 18.8363 22.1369 17.6817C19.6651 15.0487 19.2997 14.7034 18.6333 14.4552C17.9562 14.207 16.9567 14.1099 16.3227 14.2394ZM17.9133 16.2896C18.1389 16.3652 19.1384 17.3471 20.8365 19.1492C22.2981 20.6923 23.5448 21.9225 23.6845 21.9549C23.8458 21.998 26.1994 21.329 30.3586 20.0773L36.7855 18.1349L37.4733 18.8039L38.1719 19.4838L37.8065 19.6996C37.6023 19.8291 35.3346 21.1024 32.766 22.5376C30.1974 23.9728 27.9835 25.2677 27.8545 25.408C27.4246 25.8828 27.5213 26.3252 28.2199 27.1022C30.5091 29.6272 34.002 33.2314 34.1954 33.2746C34.3244 33.307 35.3346 33.048 36.4738 32.6919L38.5158 32.0552L38.9135 32.4437L39.3219 32.8322L37.3014 33.9328C36.1944 34.5371 35.0659 35.163 34.7973 35.3033C34.3674 35.5407 34.2384 35.7025 33.787 36.5874C33.1314 37.8607 31.8095 40.2563 31.6805 40.3858C31.6161 40.4506 31.4441 40.3534 31.2184 40.1376L30.8637 39.7923L31.4441 37.8823C32.0567 35.886 32.1319 35.4112 31.8847 35.0875C31.745 34.8824 26.3606 29.7675 25.6406 29.1416C25.1354 28.71 24.5981 28.6776 24.2434 29.0337C24.1144 29.174 22.7495 31.5264 21.2234 34.2781L18.4291 39.2743L17.7413 38.5837L17.0535 37.8931L18.1819 34.181C21.0622 24.7389 20.9547 25.1274 20.8365 24.7497C20.7613 24.5231 20.052 23.7785 18.6548 22.4513C15.7745 19.7319 15.2909 19.214 15.1404 18.6744C14.7428 17.1529 16.3764 15.7501 17.9133 16.2896Z" fill="#133F68"/>
</svg>
