<svg width="50" height="50" viewBox="0 0 50 50" fill="none" xmlns="http://www.w3.org/2000/svg">
<path d="M4.78682 0.0599909C4.4645 0.177197 4.24962 0.47998 3.71243 1.55437L3.14593 2.68737L1.84689 2.86318C0.674829 3.02922 0.508786 3.07806 0.274373 3.32224C-0.20422 3.79106 -0.116315 3.99617 1.01668 5.15847L2.04224 6.19379L1.80782 7.49283C1.55388 8.88954 1.57341 9.13372 1.97387 9.4072C2.33525 9.66115 2.59897 9.59278 3.82963 8.95791L5.0017 8.34258L6.18353 8.95791C6.83793 9.28999 7.5021 9.56348 7.64861 9.56348C8.00023 9.56348 8.40068 9.16302 8.40068 8.82117C8.40068 8.67466 8.31278 8.03003 8.20534 7.38539L8.00023 6.21333L8.98672 5.21707C9.856 4.32826 9.96344 4.18175 9.96344 3.87897C9.96344 3.22456 9.75833 3.10736 8.24441 2.87294L6.88677 2.66783L6.30074 1.52507C5.97842 0.89997 5.64633 0.323706 5.5682 0.245568C5.39239 0.0795259 4.99193 -0.0181465 4.78682 0.0599909ZM5.80261 4.08408C5.88075 4.15245 6.26167 4.25989 6.64259 4.31849C7.01374 4.37709 7.32629 4.44546 7.32629 4.48453C7.32629 4.5236 7.15048 4.68964 6.9356 4.86545C6.33004 5.35381 6.20306 5.66636 6.33981 6.3989C6.39841 6.73099 6.44724 7.04354 6.44724 7.10214C6.44724 7.16075 6.15423 7.05331 5.80261 6.86773C5.45099 6.68215 5.09937 6.53564 5.02123 6.53564C4.9431 6.53564 4.58171 6.68215 4.21056 6.86773L3.54639 7.20958L3.62452 6.79936C3.66359 6.57471 3.70266 6.19379 3.71243 5.94961C3.71243 5.53939 3.67336 5.46125 3.22407 5.02173C2.96035 4.75801 2.73571 4.51383 2.73571 4.47477C2.73571 4.4357 2.98966 4.37709 3.29244 4.33802C4.13242 4.23059 4.33753 4.09384 4.68915 3.34177L5.0017 2.6776L5.32402 3.32224C5.49983 3.67385 5.7147 4.01571 5.80261 4.08408Z" fill="#133F68"/>
<path d="M17.621 0.177692C17.0057 0.460941 16.7517 0.88093 16.7517 1.65254C16.7517 2.40461 16.9861 2.81484 17.5819 3.11762C19.174 3.9283 20.766 1.93579 19.6037 0.607449C19.0568 -0.00788498 18.3633 -0.16416 17.621 0.177692Z" fill="#133F68"/>
<path d="M41.111 0.27499C40.8473 0.538704 40.8278 0.616842 40.8278 1.26148C40.8278 1.86704 40.8571 1.98425 41.0719 2.18936C41.4333 2.56051 41.9315 2.55075 42.2733 2.17959C42.4589 1.97448 42.4882 1.82797 42.4882 1.23218C42.4784 0.499635 42.4003 0.304291 42.0291 0.108947C41.6873 -0.0766294 41.4138 -0.0277934 41.111 0.27499Z" fill="#133F68"/>
<path d="M38.6009 2.75582C38.3274 3.04884 38.3078 3.62511 38.5716 3.88882C38.806 4.12323 39.3334 4.23067 39.9292 4.1623C40.7399 4.0744 41.111 3.29302 40.5836 2.77536C40.3785 2.56048 40.2613 2.53118 39.5776 2.53118C38.9036 2.53118 38.7864 2.56048 38.6009 2.75582Z" fill="#133F68"/>
<path d="M42.7812 2.72682C42.371 3.13705 42.4687 3.81098 42.9766 4.06493C43.3086 4.23097 44.1975 4.22121 44.5295 4.0454C44.9202 3.85005 45.0863 3.40076 44.93 3.01984C44.764 2.60962 44.5686 2.53148 43.7189 2.53148C43.1133 2.53148 42.9375 2.57055 42.7812 2.72682Z" fill="#133F68"/>
<path d="M41.238 4.26043C40.8766 4.40694 40.6813 5.68644 40.945 6.1748C41.2185 6.69246 41.8436 6.7999 42.244 6.38968C42.4589 6.18457 42.4882 6.06736 42.4882 5.41296C42.4882 4.75856 42.4589 4.64135 42.244 4.43624C42.0194 4.20183 41.5701 4.12369 41.238 4.26043Z" fill="#133F68"/>
<path d="M18.9004 5.19824C18.5586 5.49126 18.5488 5.6573 18.8516 7.26889C19.1544 8.91955 19.2325 12.1427 19.0079 13.8617C18.666 16.4403 18.2167 18.0226 16.986 21.0113C16.5074 22.1736 16.1168 23.2383 16.1168 23.3848C16.1168 23.9806 17.0446 24.3615 17.4646 23.9415C17.6404 23.7657 18.0995 22.7401 19.0176 20.4546C19.8674 18.3547 20.4729 15.8836 20.7171 13.5883C20.8636 12.1916 20.7757 8.6949 20.5706 7.4154C20.2483 5.36428 20.1311 5.11034 19.5255 5.01266C19.252 4.96383 19.1251 5.0029 18.9004 5.19824Z" fill="#133F68"/>
<path d="M25.0244 6.8197C23.4421 7.36666 22.8463 9.3201 23.8621 10.6582C24.5556 11.5666 25.8546 11.8791 26.9095 11.381C28.0913 10.834 28.6383 9.40801 28.1304 8.21641C27.8471 7.55224 27.222 6.98574 26.5578 6.7904C25.9034 6.59505 25.669 6.59505 25.0244 6.8197ZM26.4504 8.64617C26.9192 9.1736 26.5481 9.95497 25.8351 9.95497C25.1611 9.95497 24.7802 9.24197 25.1611 8.70477C25.4835 8.23594 26.0597 8.21641 26.4504 8.64617Z" fill="#133F68"/>
<path d="M31.0801 9.39754C30.8749 9.62218 30.8652 9.69055 30.8652 12.064V14.5155L31.1191 14.75L31.3731 14.9844H33.7465H36.1199L36.3739 14.75L36.6278 14.5155V12.0542C36.6278 9.61241 36.6278 9.59288 36.4032 9.38777C36.1785 9.18266 36.1102 9.17289 33.7367 9.17289C31.3047 9.17289 31.2852 9.17289 31.0801 9.39754ZM34.9674 12.0542V13.2751H33.7465H32.5256V12.0542V10.8333H33.7465H34.9674V12.0542Z" fill="#133F68"/>
<path d="M44.6565 11.7609C44.2756 11.9269 44.1486 12.2297 44.1486 12.9915C44.1486 13.519 44.1779 13.6166 44.4319 13.8706C44.803 14.232 45.2328 14.2515 45.5649 13.9097C45.7797 13.7045 45.809 13.5873 45.809 12.9036C45.809 12.2297 45.7797 12.1125 45.5942 11.9367C45.2816 11.6534 45.0277 11.6046 44.6565 11.7609Z" fill="#133F68"/>
<path d="M11.0085 11.9079C10.5202 12.0349 9.77785 12.4158 9.4653 12.7088C8.09789 13.9786 8.07835 16.2348 9.39693 19.331C11.155 23.4723 15.687 29.0787 20.2678 32.7804C22.8171 34.8413 25.9914 36.8045 27.9155 37.498C28.316 37.6445 28.4918 37.7519 28.4039 37.8008C28.3355 37.8398 27.0463 38.338 25.5421 38.9142C23.5008 39.6858 22.7389 39.9398 22.524 39.9007C22.1334 39.8226 19.7892 38.6798 18.8125 38.084C13.2061 34.7046 9.16251 28.8833 7.91231 22.3784C7.69743 21.2747 7.57046 21.0403 7.13094 20.9426C6.59374 20.8254 6.16398 21.2161 6.15422 21.8119C6.14445 22.8374 7.17977 26.3634 8.05882 28.3168C10.3443 33.4055 14.4954 37.8008 19.379 40.3012L20.4436 40.8384L15.5796 42.6844L10.7155 44.5206L10.1197 43.9834C8.39091 42.4304 7.18954 40.477 6.58397 38.2305C6.35933 37.3905 6.21282 36.1794 5.94911 32.9074C5.8905 32.126 5.7733 31.3739 5.70493 31.2274C5.46075 30.7488 4.6989 30.7195 4.35705 31.1786L4.16171 31.4521L4.38635 34.1576C4.6989 38.0156 4.97239 39.2268 5.9198 41.1411C6.61328 42.5379 7.19931 43.3485 8.31277 44.4913L8.9867 45.175L5.55842 46.474C3.67335 47.187 2.12036 47.7535 2.09106 47.734C2.07153 47.7047 2.34501 46.5326 2.68686 45.1066C3.03848 43.6904 3.30219 42.4304 3.27289 42.3034C3.12638 41.6881 2.24734 41.4635 1.87618 41.9421C1.74921 42.0983 1.40736 43.3095 0.889695 45.4387C-0.135861 49.6191 -0.0967919 49.3358 0.274362 49.707C0.440404 49.8633 0.655283 50 0.752955 50C0.918997 50 3.06778 49.1991 13.3331 45.3117C14.3001 44.9504 19.0665 43.1532 23.9305 41.317C28.7946 39.4807 32.9554 37.8887 33.1898 37.7715C33.7075 37.5175 34.2447 36.9315 34.5084 36.3357C34.8112 35.6618 34.86 34.099 34.5963 33.0051C34.2545 31.5791 34.02 31.0516 33.6391 30.8954C33.2777 30.7488 33.0726 30.7879 32.7503 31.0809C32.4573 31.3446 32.4671 31.6865 32.7796 32.6632C33.1312 33.7181 33.2094 35.2418 32.9456 35.7301C32.7112 36.1892 32.3792 36.4041 31.754 36.5213C30.0253 36.8436 26.7923 35.4762 23.0808 32.839C18.119 29.3228 12.8936 23.2672 10.9304 18.745C10.4518 17.6413 10.0611 16.1762 10.0611 15.4925C10.0611 14.1153 10.8132 13.4316 12.249 13.4902C12.9327 13.5195 13.2843 13.246 13.2843 12.6893C13.2843 12.113 12.962 11.8884 12.0927 11.8493C11.702 11.8298 11.2136 11.8591 11.0085 11.9079Z" fill="#133F68"/>
<path d="M41.5017 13.1677C41.0622 13.617 41.1208 13.8905 41.785 14.5644C42.4589 15.2286 42.7324 15.2872 43.1817 14.8476C43.5724 14.4472 43.5528 14.0956 43.1133 13.5877C42.4784 12.8356 41.9608 12.7086 41.5017 13.1677Z" fill="#133F68"/>
<path d="M47.0983 13.4123C46.6295 13.8714 46.5513 13.9886 46.5513 14.3011C46.5513 14.5844 46.6197 14.7211 46.8248 14.8969C47.2643 15.2876 47.616 15.2095 48.2215 14.6137C48.661 14.1644 48.7392 14.0277 48.7392 13.7249C48.7392 13.256 48.3876 12.8849 47.9578 12.8849C47.7136 12.8849 47.5281 13.0021 47.0983 13.4123Z" fill="#133F68"/>
<path d="M28.6579 16.0301C28.2477 16.3524 20.6097 23.209 20.2972 23.5411C20.1116 23.7364 20.0237 23.9318 20.0237 24.1467C20.0237 24.7132 20.6488 25.1429 21.1274 24.928C21.3423 24.8304 29.3318 17.7003 29.7713 17.2217C30.0741 16.8799 30.0546 16.4501 29.703 16.0985C29.3611 15.7566 29.0388 15.7371 28.6579 16.0301Z" fill="#133F68"/>
<path d="M43.6114 16.0004C39.9975 17.6706 26.2648 24.283 26.1086 24.4392C25.6104 24.8983 25.9621 25.7773 26.6458 25.7773C26.8313 25.7773 27.642 25.4453 28.6871 24.9471C29.6443 24.4978 33.5707 22.6323 37.4092 20.8058C41.2477 18.9794 44.5197 17.3776 44.6858 17.2506C45.0765 16.938 45.0862 16.3813 44.6956 16.0492C44.3732 15.766 44.1291 15.7562 43.6114 16.0004Z" fill="#133F68"/>
<path d="M47.8016 16.0496C47.4207 16.3719 47.4207 16.9189 47.8016 17.2412C48.0263 17.4463 48.1728 17.4756 48.7881 17.4756C49.4718 17.4756 49.5206 17.4561 49.7551 17.1728C50.0871 16.7821 50.0774 16.45 49.7258 16.0984C49.462 15.8347 49.3839 15.8152 48.749 15.8152C48.1728 15.8152 48.0263 15.8542 47.8016 16.0496Z" fill="#133F68"/>
<path d="M46.9713 18.3058C46.6588 18.4718 46.4634 18.9504 46.5806 19.2629C46.6295 19.3802 46.8834 19.6829 47.1569 19.9467C47.7429 20.4838 48.1141 20.5522 48.495 20.1615C48.8662 19.8001 48.8271 19.3313 48.3778 18.8332C48.0164 18.4425 47.5867 18.1593 47.3523 18.1593C47.2839 18.169 47.1081 18.2276 46.9713 18.3058Z" fill="#133F68"/>
<path d="M44.6371 19.2625C44.2659 19.4481 44.1389 19.7899 44.1682 20.5322C44.2073 21.2745 44.3733 21.5285 44.891 21.6359C45.1254 21.675 45.2524 21.6359 45.4966 21.4308C45.7994 21.1769 45.8091 21.1475 45.8091 20.4248C45.7994 19.6434 45.731 19.4481 45.3501 19.2527C45.0864 19.1062 44.9398 19.1062 44.6371 19.2625Z" fill="#133F68"/>
<path d="M30.7675 27.496C29.7615 27.5644 27.7885 27.8379 26.1769 28.1113C24.3993 28.4239 24.2234 28.5216 24.2234 29.1662C24.2234 29.5569 24.5848 29.9769 24.9169 29.9769C25.0341 29.9769 25.7667 29.8694 26.5578 29.7327C29.3708 29.2639 30.3573 29.1662 32.3791 29.1662C35.3092 29.1662 37.5264 29.5178 40.3491 30.4262C41.7946 30.895 42.0193 30.895 42.3318 30.4457C42.5565 30.1234 42.5272 29.7132 42.2537 29.4397C41.7458 28.9416 37.8096 27.8965 35.4264 27.6328C34.3618 27.5253 31.5977 27.4374 30.7675 27.496Z" fill="#133F68"/>
<path d="M45.0569 30.114C42.8593 30.8368 42.8007 33.9819 44.969 34.8121C45.5062 35.0172 46.4732 34.9781 46.9518 34.7339C47.6355 34.3725 48.202 33.5619 48.3094 32.7805C48.4462 31.8233 47.8308 30.7098 46.942 30.2508C46.4537 29.9968 45.5941 29.9382 45.0569 30.114ZM46.3364 31.8526C46.7271 32.1945 46.7564 32.6144 46.4439 32.9856C46.1118 33.3861 45.6234 33.4154 45.2718 33.054C44.5393 32.3312 45.5746 31.1787 46.3364 31.8526Z" fill="#133F68"/>
<path d="M37.7609 36.1402C37.2335 36.7555 37.5656 37.322 38.5814 37.5564C40.7204 38.0448 42.7618 39.1485 44.1389 40.555L44.5589 40.9945L44.0413 41.1507C42.879 41.4828 41.6874 42.4498 41.1404 43.4949C40.906 43.9344 40.8767 44.1004 40.8767 44.9209C40.8767 46.0246 41.0916 46.552 41.8046 47.265C42.498 47.9683 43.045 48.1831 44.0999 48.1929C44.8519 48.1929 45.057 48.1538 45.5259 47.939C46.5905 47.4408 47.2449 46.5129 47.5086 45.1455L47.6356 44.4814L47.9188 45.0674C48.1826 45.6046 48.2021 45.7413 48.2021 46.7278C48.2021 47.6948 48.1728 47.8608 47.9384 48.3785C47.7821 48.691 47.6649 49.0719 47.6649 49.2087C47.6649 49.531 47.9677 49.8729 48.3193 49.9608C49.1495 50.1756 49.9113 48.6031 49.9113 46.7083C49.9113 45.7023 49.7355 44.9404 49.296 44.0516C48.9737 43.3874 48.036 42.3033 47.5477 42.0103C47.3914 41.9224 47.0105 41.5024 46.7175 41.0726C44.9691 38.582 42.3613 36.775 39.4507 36.0425C38.3177 35.7593 38.0735 35.769 37.7609 36.1402ZM45.5552 42.9674C45.8482 43.3288 45.9459 43.7488 45.8873 44.5595C45.8091 45.8683 45.0668 46.6497 44.0022 46.5618C42.7227 46.4543 42.0683 45.126 42.7715 44.0223C43.2403 43.2898 44.2171 42.6842 44.9496 42.6744C45.2231 42.6744 45.3598 42.7428 45.5552 42.9674Z" fill="#133F68"/>
</svg>
