<svg width="51" height="50" viewBox="0 0 51 50" fill="none" xmlns="http://www.w3.org/2000/svg">
<path d="M27.7594 0.131161C22.6547 0.938465 18.5914 4.91368 17.5908 10.0743C17.3764 11.1575 17.356 13.2116 17.5398 14.2846C18.0911 17.4218 19.8267 20.2627 22.3995 22.2146C23.2162 22.8277 25.2479 23.8189 26.3505 24.1357C27.4429 24.4525 29.1275 24.708 30.0668 24.708C31.7717 24.708 33.7217 24.2379 35.3757 23.4306C38.9183 21.7036 41.4401 18.3824 42.1241 14.5503C42.461 12.6189 42.2875 10.3196 41.6545 8.4597C41.0317 6.58961 39.6636 4.40273 38.7448 3.81002C38.1628 3.4217 37.3053 3.93265 37.3155 4.65821C37.3155 4.975 37.4278 5.1896 38.0097 5.90493C38.8673 6.97793 39.7147 8.68452 40.0312 9.94146C40.2149 10.6875 40.2558 11.1473 40.2558 12.394C40.2558 14.2232 40.0516 15.2349 39.3574 16.6963C37.9791 19.5985 35.6922 21.5197 32.5783 22.3781C31.9249 22.562 31.4961 22.6029 30.0566 22.6029C28.5456 22.6131 28.2086 22.5824 27.4531 22.3781C25.7482 21.908 24.2576 21.07 22.9814 19.8642C22.0319 18.9649 21.4194 18.1371 20.8579 17.0233C17.9482 11.2188 21.0008 4.32098 27.3 2.47132C28.5251 2.11366 30.567 2.02169 31.8534 2.26694C32.9969 2.48154 33.2929 2.47132 33.6094 2.22607C34.1199 1.8173 34.0382 0.907808 33.4563 0.621675C32.3231 0.0596256 29.6584 -0.165194 27.7594 0.131161Z" fill="#133F68"/>
<path d="M29.6891 4.66781C29.4441 4.91306 29.3931 5.05613 29.3931 5.43424V5.90431H28.7907C27.6473 5.90431 26.3302 6.47658 25.6258 7.29411C25.0847 7.90725 24.8703 8.43864 24.8192 9.28682C24.758 10.3292 24.9622 10.9525 25.6156 11.6576C26.2281 12.3219 26.7795 12.5876 28.219 12.8942L29.342 13.119L29.3727 14.8767L29.3931 16.6343H28.8111C27.7289 16.6343 26.9326 16.0314 26.7488 15.0606C26.6263 14.3964 26.3098 14.0796 25.7687 14.0796C25.1255 14.0796 24.7988 14.4475 24.7988 15.1526C24.7988 16.2051 25.2991 17.1146 26.2588 17.83C26.9734 18.3511 27.9535 18.6781 28.7907 18.6781H29.3931V19.1993C29.3931 19.6387 29.4441 19.7614 29.6891 20.0168C30.0363 20.3643 30.5672 20.4154 30.9755 20.1497C31.2308 19.9862 31.435 19.4548 31.435 18.9541C31.435 18.7088 31.4758 18.6781 31.7719 18.6781C31.9454 18.6781 32.3334 18.6168 32.609 18.5351C35.5392 17.7584 36.5907 14.5292 34.5284 12.6489C33.9567 12.1175 33.3952 11.8927 32.0577 11.6168L31.435 11.4839V9.66493V7.84594L31.7208 7.90725C32.7622 8.13207 33.5789 8.77587 33.5789 9.38902C33.5789 10.0124 34.018 10.4927 34.5795 10.5029C35.3043 10.5029 35.6821 9.99194 35.58 9.13354C35.3758 7.54958 33.7627 6.08826 32.0577 5.93497L31.4554 5.87366L31.3941 5.39336C31.3022 4.73934 30.9449 4.37145 30.3936 4.37145C30.0873 4.37145 29.924 4.44299 29.6891 4.66781ZM29.3727 9.45033C29.4033 11.2284 29.4952 11.0956 28.3721 10.8606C27.4227 10.6562 27.1062 10.4825 26.8918 10.0328C26.4017 8.99047 27.586 7.79484 29.0357 7.87659L29.342 7.89703L29.3727 9.45033ZM32.3028 13.7321C33.1808 13.8854 33.5789 14.3044 33.5789 15.0708C33.5789 15.8372 32.8439 16.5015 31.8229 16.6752L31.435 16.7467V15.1423V13.5482L31.6698 13.5993C31.7923 13.6299 32.0782 13.6912 32.3028 13.7321Z" fill="#133F68"/>
<path d="M39.5617 26.1385C38.745 26.3531 37.8465 26.8743 37.1115 27.5692C36.5091 28.1516 36.0191 28.8261 34.2528 31.5444C32.1395 34.8043 32.1293 34.8247 31.7821 34.8247H31.4248L31.6903 34.3853C32.2926 33.3429 32.5989 31.7488 32.3641 30.8597C32.2722 30.5429 32.1497 30.3692 31.9149 30.2261C31.5984 30.0319 31.3431 30.0217 24.4211 30.0217C20.3884 30.0217 17.152 30.0626 17.0193 30.1137C16.8866 30.1648 15.6104 31.248 14.1811 32.5152L11.5777 34.8145L10.8426 34.8247H10.0973V33.4349V32.0451L9.75017 31.6977L9.40305 31.3502H5.10488C0.500423 31.3502 0.398329 31.3604 0.132883 31.8714C-0.0815148 32.3006 -0.0406771 32.6378 0.286025 33.0057L0.582099 33.3429L4.31875 33.3736L8.05541 33.4042V40.7007V47.9971L5.69703 48.0277L3.33865 48.0584L3.09362 48.3445C2.75671 48.7328 2.75671 49.3255 3.09362 49.7139L3.33865 50H6.41169H9.48473L9.76038 49.7139C10.0156 49.4584 10.0462 49.3562 10.0871 48.5693L10.1177 47.7007H14.0177H17.9075L27.8617 44.0116L37.8159 40.3123L42.257 37.2466C44.6971 35.5605 47.6068 33.5575 48.7094 32.7911C50.935 31.2582 51.1494 31.0334 50.935 30.3896C50.7819 29.9093 49.2301 28.4378 48.5562 28.1312C47.4026 27.5896 45.8916 27.5385 44.5439 27.9984L43.8191 28.2334L43.9212 27.9064C44.0539 27.4772 43.8599 26.9969 43.4617 26.7925C42.3795 26.2305 40.4704 25.9137 39.5617 26.1385ZM41.3994 28.1721C41.4709 28.213 41.328 28.5808 40.9808 29.2042L40.4602 30.175L38.163 31.5137C36.9073 32.2495 35.8659 32.8422 35.8455 32.832C35.8251 32.8115 36.1722 32.2597 36.6112 31.5852C37.0502 30.921 37.5607 30.1341 37.7445 29.8378C38.2958 28.9794 39.2044 28.2947 40.0824 28.0903C40.4602 27.9984 41.1748 28.0495 41.3994 28.1721ZM47.617 29.9093C48.0968 30.1239 48.4644 30.502 48.3214 30.6247C48.1377 30.7779 37.1013 38.3707 36.8767 38.4831C36.7541 38.5546 32.313 40.2101 27.0041 42.1824L17.3562 45.7591H13.7216H10.0973V41.2627V36.7663H11.2203H12.3434L15.0182 34.4159L17.7033 32.0655H24.0638H30.4141L30.3528 32.3415C30.1486 33.251 29.4238 34.2422 28.6785 34.6203C28.3007 34.8145 28.0659 34.8247 23.9719 34.8247H19.6737L19.3164 35.1824C18.9999 35.4991 18.9591 35.5911 19.0101 35.9181C19.051 36.1225 19.1939 36.4086 19.3368 36.5517L19.5921 36.8174L26.2282 36.8481C32.2518 36.8685 32.895 36.8583 33.191 36.705C33.3748 36.613 35.8659 35.1721 38.7348 33.5167C41.5934 31.8612 44.1356 30.3896 44.3806 30.2465C45.0442 29.8684 45.5955 29.7254 46.4429 29.7254C46.9738 29.7254 47.3311 29.7765 47.617 29.9093Z" fill="#133F68"/>
<path d="M3.41017 36.347C3.03242 36.5105 2.79761 36.8682 2.79761 37.2974C2.79761 37.6346 2.85886 37.7572 3.13452 38.0025C3.31829 38.166 3.57352 38.2988 3.71646 38.2988C4.3086 38.2988 4.78845 37.8185 4.78845 37.236C4.78845 36.6638 3.94106 36.1222 3.41017 36.347Z" fill="#133F68"/>
</svg>
