<svg width="46" height="50" viewBox="0 0 46 50" fill="none" xmlns="http://www.w3.org/2000/svg">
<path d="M13.2327 0.0788193C11.5387 0.391407 10.4449 1.2901 9.86406 2.8628C9.67045 3.37075 9.64141 3.64427 9.64141 4.86531C9.64141 6.08636 9.67045 6.38918 9.86406 7.01435C10.4545 8.90941 11.5484 10.4235 13.2134 11.6739L13.5038 11.8985H7.03746H0.571128L0.290404 12.1916L0 12.4749L0.0290404 16.9195L0.0580808 21.3641L0.271044 21.5887C0.464646 21.7743 0.619529 21.8134 1.4617 21.8427L2.42971 21.8818V33.721C2.43939 40.2268 2.47811 45.8631 2.51683 46.2538C2.7298 48.0707 4.08502 49.5653 5.80808 49.8974C6.52441 50.0342 39.4756 50.0342 40.1919 49.8974C41.431 49.663 42.5539 48.7741 43.1153 47.5823L43.4251 46.9181L43.4541 34.4048L43.4735 21.8818L44.4899 21.8427C45.3901 21.8134 45.5354 21.7841 45.7193 21.5887L45.9419 21.3641L45.971 16.939L46 12.5042L45.758 12.2209L45.5257 11.9474L39.0303 11.8985L32.5446 11.8497L33.2803 11.2636C34.2193 10.5212 35.0614 9.45644 35.5939 8.33308C36.2327 6.99482 36.3586 6.41848 36.3489 4.81647C36.3489 3.30238 36.2134 2.74558 35.6132 1.80782C34.6355 0.264416 32.1864 -0.390064 29.7277 0.235111C28.8855 0.450016 27.4916 1.12403 26.7753 1.66129C25.7298 2.44276 24.4907 4.035 23.5808 5.764C23.2807 6.3501 23.0194 6.81898 23 6.81898C22.9806 6.81898 22.7483 6.40871 22.487 5.90076C21.5383 4.08384 20.338 2.51114 19.2635 1.6906C18.5278 1.1338 17.1435 0.459785 16.2723 0.225346C15.5269 0.0397453 13.9007 -0.048172 13.2327 0.0788193ZM15.5947 1.78828C16.4369 1.96411 17.5888 2.4916 18.2664 3.00933C19.1957 3.71265 20.396 5.37327 21.2866 7.18041C22.032 8.67497 22.6515 10.6873 22.6612 11.5762V11.8985H19.6797H16.6982L15.8367 11.4003C13.436 10.0132 12.2841 8.81173 11.5968 6.97528C11.3161 6.24265 11.2967 6.08636 11.2967 4.91415C11.287 3.74195 11.3064 3.60519 11.5484 3.09724C11.6839 2.78465 11.9356 2.44276 12.1195 2.306C12.9423 1.6906 14.2298 1.49523 15.5947 1.78828ZM33.1157 1.89573C33.7934 2.15948 34.1418 2.47206 34.4419 3.07771C34.6936 3.60519 34.713 3.72242 34.713 4.86531C34.713 5.9496 34.6742 6.17427 34.4419 6.86782C33.7934 8.73358 32.6124 9.98393 30.1633 11.4003L29.3018 11.8985H26.8043H24.3068V11.5762C24.3068 11.4101 24.2197 10.7752 24.1035 10.1695L23.8906 9.08524L24.1132 8.50891C25.0038 6.25242 26.5429 3.91778 27.7336 3.00933C28.3725 2.52091 29.5438 1.97388 30.3279 1.78828C31.112 1.61245 32.5252 1.66129 33.1157 1.89573ZM18.0922 16.8511L18.0631 20.1528L9.86406 20.1821L1.6553 20.2016V16.8804V13.5592H9.88342H18.1115L18.0922 16.8511ZM26.2428 16.8804V20.2016H23H19.7572V16.8804V13.5592H23H26.2428V16.8804ZM44.3447 16.8804V20.2016L36.1456 20.1821L27.9369 20.1528L27.9078 16.8511L27.8885 13.5592H36.1166H44.3447V16.8804ZM19.7572 35.0984V48.3443L12.8165 48.315C5.90488 48.2857 5.86616 48.2857 5.47896 48.0707C4.76263 47.6898 4.3367 47.0744 4.18182 46.2343C4.10438 45.8436 4.07534 41.8581 4.07534 33.7601V21.8623H11.9162H19.7572V35.0984ZM24.5972 35.0984V48.3345H23H21.4028V35.0984V21.8623H23H24.5972V35.0984ZM41.9247 33.7601C41.9247 41.8581 41.8956 45.8436 41.8182 46.2343C41.6439 47.1721 41.1212 47.8265 40.3081 48.1391C39.8047 48.3247 39.5434 48.3345 33.0189 48.3345H26.2428V35.0984V21.8623H34.0838H41.9247V33.7601Z" fill="#133F68"/>
<path d="M13.6393 3.37025C13.2908 3.42886 12.8842 3.91727 12.8649 4.30801C12.7681 6.22261 13.4166 7.59994 14.9751 8.81122C16.2819 9.81736 17.3468 10.4035 19.0117 11.0286C19.941 11.3705 20.183 11.3803 20.4831 11.0677C20.8026 10.7551 20.7929 10.3449 20.4734 9.43639C19.7861 7.51203 18.2954 5.11878 17.2693 4.30801C16.2916 3.52654 14.9267 3.17488 13.6393 3.37025ZM15.6818 5.28484C16.2239 5.53882 16.8724 6.17376 17.4048 6.965C17.8695 7.66832 18.3535 8.53771 18.4503 8.85029L18.5181 9.07497L17.9953 8.81122C17.1725 8.40095 15.9335 7.5511 15.4978 7.11153C15.0429 6.65241 14.5298 5.64627 14.5298 5.21647C14.5298 4.95272 14.5395 4.94295 14.888 5.01133C15.0816 5.04064 15.4398 5.16762 15.6818 5.28484Z" fill="#133F68"/>
<path d="M30.6667 3.4098C30.0762 3.52702 29.3018 3.87868 28.7887 4.25965C27.6658 5.09973 25.9912 7.86417 25.3813 9.87645C25.1587 10.6091 25.2071 10.8924 25.5846 11.1561C25.8944 11.371 26.117 11.3515 26.9882 11.0291C28.7016 10.3844 29.7955 9.77877 31.1507 8.71402C32.5349 7.61996 33.0673 6.57475 33.0673 4.89459C33.0673 3.94706 33.0577 3.87868 32.8157 3.64424C32.6027 3.41957 32.4672 3.3805 31.8476 3.35119C31.4508 3.33165 30.9183 3.35119 30.6667 3.4098ZM31.4411 5.3537C31.3733 5.9105 31.0345 6.55521 30.5505 7.06316C29.8632 7.76649 27.5013 9.23174 27.5013 8.95823C27.5013 8.52842 29.0985 6.1254 29.6696 5.70536C30.202 5.30486 30.899 4.99227 31.3152 4.97274C31.4701 4.96297 31.4895 5.01181 31.4411 5.3537Z" fill="#133F68"/>
</svg>
