<svg width="65" height="50" viewBox="0 0 65 50" fill="none" xmlns="http://www.w3.org/2000/svg">
<path d="M31.2074 0.0768471C30.7373 0.141033 29.9115 0.359264 29.3652 0.564655C27.9931 1.07814 1.79576 13.7483 1.27486 14.1462C0.639623 14.634 0.131431 15.4171 0.0297925 16.0718C-0.173484 17.4838 0.652328 18.5493 2.85026 19.6661L4.29861 20.4107V26.3927V32.3748L3.68878 32.7727C2.36748 33.6328 1.73224 35.2888 2.13879 36.7779C2.34207 37.5353 2.99001 38.4338 3.59984 38.8061C3.90476 38.9987 4.17156 39.2041 4.17156 39.2683C4.17156 39.3581 1.08429 49.3581 0.906424 49.8203C0.855605 49.9743 1.6306 50 5.56909 50C9.78708 50 10.2826 49.9743 10.219 49.8074C10.0158 49.2683 6.96662 39.3838 6.96662 39.2554C6.96662 39.1784 7.13178 39.05 7.33505 38.973C8.55472 38.4467 9.41864 36.4056 9.01209 34.9165C8.79611 34.0693 8.17357 33.2092 7.47481 32.7727L6.83957 32.3748V27.0731C6.83957 24.1463 6.87768 21.7586 6.9285 21.7586C6.97932 21.7586 7.86866 22.1694 8.89775 22.6828L10.7781 23.5943V31.566C10.7781 39.4608 10.7781 39.5378 11.0449 39.9871C11.4641 40.6803 14.2719 43.4274 15.5424 44.3774C19.3538 47.24 23.7751 49.0501 28.5648 49.7047C30.4959 49.9615 34.3836 49.9615 36.3147 49.7047C41.1679 49.0372 45.4622 47.2786 49.3371 44.3902C50.722 43.3504 53.5805 40.4878 53.8855 39.8331C54.076 39.4095 54.1014 38.6906 54.1014 31.5275V23.6713L58.7387 21.3735C61.2924 20.1154 63.6046 18.8959 63.8841 18.6777C64.5956 18.1129 65.0784 17.0474 64.9895 16.3028C64.8751 15.5069 64.494 14.8137 63.8968 14.3003C63.1346 13.6327 36.6959 0.628841 35.4889 0.320751C34.3455 0.0255013 32.3635 -0.0900345 31.2074 0.0768471ZM35.0315 2.6956C35.4127 2.81113 40.6979 5.3657 46.7835 8.36956C52.8691 11.3734 58.8912 14.3516 60.1489 14.9678C61.4194 15.5968 62.4993 16.2001 62.5374 16.3157C62.5883 16.444 62.5247 16.6366 62.3977 16.7906C62.169 17.0474 53.2121 21.566 52.6277 21.7072C52.4625 21.7457 52.272 21.8613 52.1957 21.9511C52.1195 22.041 48.2826 23.9665 43.6454 26.2258C37.4073 29.2811 35.0442 30.3722 34.4852 30.4749C33.418 30.6675 31.8172 30.6418 30.8644 30.4236C30.3308 30.2952 26.964 28.7291 21.1452 25.9049C16.2411 23.5301 11.6928 21.3349 11.0322 21.014C10.3715 20.6931 9.88872 20.4107 9.95224 20.3978C10.0285 20.3722 15.1993 19.7432 21.4501 18.9986C33.6848 17.548 33.3037 17.6122 33.5705 16.8292C33.7356 16.3927 33.5578 15.8921 33.1131 15.5583L32.7701 15.3015L19.5825 16.8677C12.328 17.7277 6.25515 18.4338 6.07728 18.4466C5.64532 18.4723 2.58346 16.9575 2.46912 16.6623C2.40559 16.4954 2.46912 16.367 2.6851 16.2001C3.00272 15.9562 28.298 3.61987 29.6447 3.05503C30.8644 2.54155 31.8045 2.37468 33.1385 2.43886C33.7992 2.46453 34.6504 2.5929 35.0315 2.6956ZM20.9038 28.3825C25.0837 30.3979 28.7681 32.1565 29.0984 32.2849C29.416 32.4261 30.1656 32.6315 30.7373 32.7471C32.084 33.0166 34.4725 32.9268 35.616 32.5673C36.0352 32.439 39.7831 30.6418 43.9503 28.5879C48.1048 26.5211 51.5478 24.8395 51.5986 24.8395C51.6494 24.8395 51.6875 28.0102 51.6875 31.887V38.9345L50.7855 39.9101C47.9904 42.9268 43.9503 45.3787 39.7577 46.5982C35.3619 47.8691 30.0767 47.9332 25.7697 46.7651C23.2288 46.0847 20.2558 44.7368 18.1977 43.3504C16.7874 42.3877 14.5895 40.5006 13.8018 39.5635L13.192 38.8446V31.7843C13.192 27.8947 13.2174 24.7111 13.2555 24.7111C13.2809 24.7111 16.7239 26.3671 20.9038 28.3825Z" fill="#133F68"/>
</svg>
