<svg width="48" height="40" viewBox="0 0 48 40" fill="none" xmlns="http://www.w3.org/2000/svg">
<path fill-rule="evenodd" clip-rule="evenodd" d="M23.0719 6.38498C23.1188 6.38498 23.1562 4.94836 23.1562 3.19249V0H24H24.8438V3.19249C24.8438 4.94836 24.8813 6.38498 24.9281 6.38498C25.3406 6.38498 27.6188 6.61033 28.3594 6.723C33.1688 7.46479 37.8094 9.50235 41.625 12.554C43.1906 13.8028 45.4219 16.1127 46.5844 17.6901C47.4 18.7887 48 19.7653 48 19.9906C48 20.2817 47.6438 20.8451 46.4625 22.4413C45.4219 23.8498 42.975 26.385 41.625 27.4554C39.4875 29.1549 36.3375 30.9296 33.7969 31.8685C32.3344 32.4038 30.1219 32.9859 28.5563 33.2394C27.6656 33.3803 25.4156 33.615 24.9281 33.615C24.8813 33.615 24.8438 35.0516 24.8438 36.8075V40H24H23.1562V36.8169V33.6338L22.4344 33.5775C19.0688 33.3052 16.3313 32.7136 13.7156 31.6808C11.3063 30.7324 8.37188 29.0423 6.375 27.446C4.80938 26.1972 2.57812 23.8873 1.41563 22.3099C0.6 21.2113 0 20.2347 0 20.0094C0 19.3709 2.29688 16.385 4.32188 14.4131C5.8125 12.9577 6.75938 12.1784 8.35313 11.1268C12.375 8.44131 16.9219 6.87324 21.7875 6.47887C22.1332 6.45449 22.4562 6.4301 22.692 6.4123L22.6929 6.41223C22.9106 6.39579 23.0539 6.38498 23.0719 6.38498ZM23.1562 12.77V10.4225V8.07512L22.7625 8.08451C22.1156 8.0939 20.6625 8.43192 19.7531 8.78873C15.9188 10.2723 13.0875 13.5775 12.2906 17.5305C12.1781 18.0563 12.0938 18.6291 12.0938 18.8169V19.1549H14.4375H16.7812V20V20.8451H14.4375H12.0938V21.1831C12.0938 21.7653 12.4688 23.3803 12.8063 24.2629C14.3156 28.1784 17.6906 31.0047 21.7781 31.784C22.1813 31.8592 22.6594 31.9249 22.8375 31.9249H23.1562V29.5775V27.23H24H24.8438V29.5775V31.9249H25.1625C25.3406 31.9249 25.8188 31.8592 26.2219 31.784C30.1594 31.0329 33.4781 28.3474 35.0438 24.6479C35.4281 23.7277 35.7938 22.3474 35.8688 21.493L35.9344 20.8451H33.5719H31.2188V20V19.1549H33.5625H35.9062V18.8357C35.9062 18.6573 35.8406 18.1784 35.7656 17.7746C34.9969 13.7183 32.1938 10.3286 28.3781 8.83568C27.4125 8.46009 25.8 8.07512 25.1813 8.07512H24.8438V10.4225V12.77H24H23.1562ZM10.875 16.5822C11.5031 14.1221 12.7594 11.9906 14.6063 10.2066C15.45 9.39906 15.5063 9.32394 15.1406 9.48357C15.0375 9.53052 14.5125 9.74648 13.9688 9.95305C11.9344 10.7606 9.64688 12.0751 7.64063 13.6056C5.90625 14.9296 3.44063 17.5305 2.18438 19.3615L1.74375 20L2.18438 20.6291C3.44063 22.4695 5.90625 25.0704 7.64063 26.3944C9.88125 28.1033 12.375 29.5023 14.6719 30.3286C14.9344 30.4225 15.2156 30.5258 15.3188 30.5728C15.4125 30.6103 15.1031 30.2629 14.625 29.8028C12.75 28.0094 11.5031 25.8873 10.875 23.4178C10.725 22.8263 10.5656 22.0188 10.5281 21.6244L10.4531 20.892L7.24688 20.8638L4.03125 20.8451V20V19.1549L7.24688 19.1362L10.4531 19.108L10.5281 18.3756C10.5656 17.9812 10.725 17.1737 10.875 16.5822ZM40.5 13.7089C38.4375 12.1221 36 10.7136 33.7313 9.8216L33.3828 9.68719L33.3827 9.68715L33.3819 9.68685L33.3806 9.68636C32.9387 9.51579 32.6119 9.38967 32.5969 9.38967C32.5781 9.38967 32.9719 9.79343 33.4781 10.2911C35.3438 12.1315 36.5438 14.216 37.1719 16.7512C37.3031 17.277 37.4344 18.0188 37.4813 18.4038L37.5469 19.108L40.7625 19.1362L43.9688 19.1549V20V20.8451L40.7625 20.8638L37.5469 20.892L37.4813 21.5962C37.4344 21.9812 37.3031 22.723 37.1719 23.2488C36.5344 25.784 35.3438 27.8685 33.4688 29.7183C32.9531 30.216 32.6156 30.6009 32.7 30.5634C32.7844 30.5258 33.2156 30.3662 33.6562 30.2066C35.625 29.493 38.475 27.8592 40.5 26.2911C42.1969 24.9765 44.55 22.4789 45.7969 20.6479L46.2469 20L45.8156 19.3615C44.5969 17.5775 42.1688 15.0047 40.5 13.7089ZM4.03125 0.460663L4.26562 0.23531L4.49062 0.00056839H7.82812H11.1562V0.798691V1.59681H8.39062H5.625V4.36676V7.13672H4.82812H4.03125V3.80339V0.460663ZM23.0906 14.4605C21.7312 14.7047 20.3624 15.5404 19.5468 16.6389C17.1749 19.8033 18.7031 24.2634 22.5468 25.4089C23.4374 25.6812 24.7874 25.6342 25.7343 25.315C28.0687 24.5169 29.5687 22.4418 29.5687 20.0004C29.5687 17.0145 27.2906 14.6014 24.3093 14.423C23.9062 14.3948 23.3531 14.4136 23.0906 14.4605ZM25.3687 16.254C27.1406 16.9206 28.2374 18.7516 27.9468 20.5732C27.5906 22.761 25.5374 24.2915 23.4281 23.9535C21.2437 23.5967 19.7156 21.5404 20.0531 19.4277C20.3906 17.3244 22.2562 15.8408 24.3281 16.0286C24.6374 16.0568 25.1062 16.1601 25.3687 16.254ZM36.8438 1.59681V0.798691V0.00056839H40.1719H43.5094L43.7344 0.23531L43.9688 0.460663V3.80339V7.13672H43.1719H42.375V4.36676V1.59681H39.6094H36.8438ZM4.03125 36.1972V39.5399L4.26562 39.7653L4.49062 40H7.82812H11.1562V39.2019V38.4038H8.39062H5.625V35.6338V32.8638H4.82812H4.03125V36.1972ZM42.375 38.4038V35.6338V32.8638H43.1719H43.9688V36.1972V39.5399L43.7344 39.7653L43.5094 40H40.1719H36.8438V39.2019V38.4038H39.6094H42.375Z" fill="#133F68"/>
</svg>
