<svg width="47" height="47" viewBox="0 0 47 47" fill="none" xmlns="http://www.w3.org/2000/svg">
<path d="M34.5439 3.32934C31.973 5.89108 31.2109 6.70827 31.2109 6.88272C31.2109 7.01127 31.569 8.47119 32.0097 10.1239L32.8085 13.1356L25.9956 19.9485C19.7427 26.2014 19.1826 26.789 19.1826 27.0645C19.1826 27.4685 19.5315 27.8174 19.9355 27.8174C20.211 27.8174 20.7986 27.2573 27.0515 21.0044L33.8644 14.1915L36.8761 14.9903C38.5288 15.431 39.9887 15.7891 40.1173 15.7891C40.2917 15.7891 41.1089 15.027 43.6707 12.4561C47.2608 8.86601 47.2332 8.90273 46.8017 8.40691C46.618 8.20491 46.1498 8.04882 43.6064 7.37854C41.9628 6.93781 40.5764 6.53381 40.5213 6.47872C40.4662 6.42363 40.0622 5.03717 39.6215 3.39361C38.9512 0.850235 38.7951 0.38196 38.5931 0.198322C38.0973 -0.233225 38.134 -0.260771 34.5439 3.32934ZM38.4921 4.83517C38.942 6.50627 39.2542 7.53464 39.3644 7.63564C39.4654 7.74582 40.4937 8.058 42.1648 8.50791C43.6156 8.89355 44.8 9.23328 44.8 9.26083C44.8 9.29755 43.689 10.4269 42.3301 11.7858L39.851 14.2649L37.124 13.5396C35.6273 13.1448 34.3511 12.7683 34.296 12.704C34.2317 12.6489 33.8552 11.3727 33.4604 9.87601L32.7351 7.149L35.2142 4.66989C36.5731 3.31098 37.7024 2.19997 37.7392 2.19997C37.7667 2.19997 38.1064 3.38443 38.4921 4.83517Z" fill="#133F68"/>
<path d="M18.4021 7.2219C11.1943 7.84627 5.04246 12.0607 1.96654 18.4697C-1.63276 25.9896 -0.209567 34.8869 5.56583 40.8551C7.3012 42.6547 8.89885 43.83 11.1117 44.9318C16.6024 47.668 23.094 47.6864 28.594 44.9961C37.6565 40.5613 41.9536 30.3143 38.7766 20.7468C38.3359 19.4246 37.3076 17.221 36.9954 16.9363C36.5822 16.569 35.8017 16.8996 35.8017 17.4413C35.8017 17.579 36.0037 18.0749 36.2516 18.5523C39.0613 23.887 39.0521 30.3327 36.2149 35.6949C34.3785 39.1564 31.5322 41.9018 27.9512 43.6647C21.7076 46.7315 14.3161 45.9786 8.70603 41.709C6.45647 40.0012 4.69355 37.8526 3.39891 35.2358C-0.136112 28.1382 1.28708 19.5899 6.93393 14.0257C8.54075 12.4372 9.92722 11.4547 11.883 10.509C13.6734 9.63673 15.5282 9.06746 17.4839 8.792C18.5582 8.64509 21.2852 8.64509 22.3962 8.80118C24.3795 9.07664 26.6749 9.81119 28.447 10.7477C28.9245 10.9956 29.4203 11.1976 29.5581 11.1976C30.109 11.1976 30.4303 10.408 30.0447 9.98564C29.7784 9.68264 27.584 8.66346 26.2526 8.22272C23.7459 7.38718 20.8077 7.01072 18.4021 7.2219Z" fill="#133F68"/>
<path d="M18.6315 15.3856C14.6466 15.8906 11.2493 18.2503 9.46798 21.7394C8.64161 23.3463 8.27434 24.7511 8.1917 26.5875C8.09988 28.635 8.45798 30.3612 9.34862 32.1792C11.1207 35.7969 14.417 38.1842 18.4387 38.7534C19.3752 38.882 21.331 38.8085 22.2583 38.6065C25.3159 37.9454 27.9786 36.1458 29.714 33.5565C30.4945 32.3996 31.128 30.8662 31.4494 29.3787C31.5779 28.8003 31.6147 28.2126 31.6147 27.0833C31.6147 25.3754 31.4586 24.4481 30.926 22.9973C30.4761 21.767 30.0078 21.3997 29.4294 21.8588C29.1264 22.0975 29.1172 22.4832 29.411 23.1443C29.5304 23.4197 29.714 23.9523 29.815 24.3287C31.2198 29.4155 28.5571 34.7318 23.6356 36.66C22.2583 37.2017 21.5513 37.3211 19.8251 37.3119C18.5029 37.3027 18.1999 37.2752 17.4195 37.064C15.5372 36.5681 14.0038 35.6867 12.6633 34.337C10.781 32.4547 9.77098 30.1592 9.6608 27.4965C9.37616 20.5366 15.9504 15.3305 22.6715 17.1852C23.048 17.2862 23.5805 17.4699 23.856 17.5892C24.5171 17.883 24.9027 17.8739 25.1414 17.5709C25.6005 16.9924 25.2333 16.5241 24.0029 16.0742C22.7358 15.6059 21.689 15.4223 20.2383 15.3764C19.5313 15.358 18.8059 15.3672 18.6315 15.3856Z" fill="#133F68"/>
</svg>
