<svg width="20" height="20" viewBox="0 0 20 20" fill="none" xmlns="http://www.w3.org/2000/svg">
<path d="M15.0304 18.7829H18.4777C18.5329 18.7829 18.5882 18.7715 18.6434 18.7487C18.6987 18.7259 18.7456 18.6945 18.7843 18.6546C18.823 18.6147 18.8533 18.5662 18.8754 18.5092C18.8975 18.4521 18.9086 18.3951 18.9086 18.3381V12.1963C18.9086 10.5426 18.5191 9.24806 17.7402 8.31283C16.9612 7.3776 15.8812 6.90998 14.5001 6.90998C13.4283 6.90998 12.5389 7.23503 11.8318 7.88513V7.62851C11.8318 7.56008 11.8207 7.49735 11.7986 7.44033C11.7765 7.3833 11.7461 7.33483 11.7075 7.29491C11.6688 7.25499 11.6218 7.22363 11.5666 7.20081C11.5114 7.178 11.4506 7.1666 11.3843 7.1666H7.93704C7.81551 7.1666 7.71054 7.21507 7.62215 7.31202C7.53376 7.40896 7.49509 7.52016 7.50614 7.64562L7.51442 8.38126L7.52271 9.71568V13.3255L7.51442 15.1731L7.50614 16.7642V18.3381C7.49509 18.4635 7.53376 18.5719 7.62215 18.6631C7.66635 18.7088 7.71607 18.743 7.77131 18.7658C7.82655 18.7886 7.8818 18.8 7.93704 18.8H11.3843C11.5058 18.8 11.6108 18.7544 11.6992 18.6631C11.7876 18.5719 11.8318 18.4635 11.8318 18.3381V12.3503C11.8318 12.1906 11.8401 12.0509 11.8566 11.9312C11.8732 11.8114 11.8925 11.7173 11.9146 11.6489C11.9699 11.512 12.0389 11.378 12.1218 11.2468C12.2047 11.1157 12.3511 10.9817 12.561 10.8448C12.7709 10.7079 13.0085 10.6395 13.2737 10.6395C13.3841 10.6395 13.4753 10.6424 13.5471 10.6481C13.6189 10.6538 13.7267 10.6937 13.8703 10.7678C14.0139 10.842 14.1327 10.9418 14.2266 11.0672C14.3205 11.1927 14.4034 11.3866 14.4752 11.6489C14.547 11.9112 14.5829 12.2305 14.5829 12.6069V18.3381C14.5829 18.4635 14.6271 18.569 14.7155 18.6546C14.8039 18.7401 14.9089 18.7829 15.0304 18.7829Z" fill="#133F68"/>
<path d="M2.58386 18.7829H6.03111C6.10845 18.7829 6.18303 18.7629 6.25485 18.723C6.32667 18.6831 6.38191 18.6289 6.42058 18.5605C6.45926 18.4921 6.47859 18.4179 6.47859 18.3381V7.62851C6.47859 7.50306 6.4344 7.3947 6.346 7.30346C6.25761 7.21222 6.15265 7.1666 6.03111 7.1666H2.58386C2.46232 7.1666 2.35736 7.21222 2.26897 7.30346C2.18058 7.3947 2.13638 7.50306 2.13638 7.62851V18.3381C2.13638 18.4635 2.18058 18.569 2.26897 18.6546C2.35736 18.7401 2.46232 18.7829 2.58386 18.7829Z" fill="#133F68"/>
<path d="M4.29091 6.61914H4.30749C5.00356 6.61914 5.57535 6.39959 6.02282 5.96049C6.4703 5.52138 6.69404 4.96538 6.69404 4.29246C6.683 3.61955 6.45649 3.06925 6.01454 2.64155C5.57258 2.21385 5.01461 2 4.34063 2C3.64455 2 3.07001 2.2167 2.61701 2.6501C2.164 3.0835 1.9375 3.63381 1.9375 4.30102C1.9375 4.96823 2.15848 5.52138 2.60043 5.96049C3.04239 6.39959 3.60588 6.61914 4.29091 6.61914Z" fill="#133F68"/>
</svg>
