<svg width="20" height="20" viewBox="0 0 20 20" fill="none" xmlns="http://www.w3.org/2000/svg">
<path d="M19.2401 6.31776C19.2022 6.22603 19.1378 6.14763 19.0553 6.09247C18.9727 6.0373 18.8757 6.00786 18.7764 6.00785H16.1331C15.849 5.4835 15.4466 5.03263 14.9578 4.69109C14.4689 4.34955 13.9071 4.12675 13.3171 4.0404C12.727 3.95406 12.125 4.00654 11.5588 4.19369C10.9926 4.38084 10.4778 4.69749 10.0555 5.11847C9.69106 5.47374 9.40143 5.89833 9.20361 6.36723C9.00579 6.83613 8.90379 7.33987 8.9036 7.84879V8.57268C5.45231 7.7386 3.12827 4.88754 3.10418 4.85759C3.044 4.78238 2.96345 4.72607 2.87214 4.69538C2.78084 4.66469 2.68263 4.66092 2.58924 4.68452C2.49585 4.70811 2.41122 4.75808 2.34545 4.82845C2.27968 4.89882 2.23554 4.98663 2.2183 5.0814C1.81754 7.28521 1.77211 10.437 3.83066 12.9368C4.44881 13.6898 5.20669 14.3162 6.06258 14.7815C5.33944 15.9415 3.38246 16.5717 2.6138 16.7271C2.5247 16.7449 2.4421 16.7866 2.37481 16.8476C2.30753 16.9087 2.25808 16.9869 2.23174 17.0738C2.2054 17.1608 2.20315 17.2533 2.22525 17.3414C2.24734 17.4296 2.29295 17.5101 2.35719 17.5743C2.41785 17.635 3.87576 19.06 6.72824 19.06C9.6838 19.06 12.2138 17.9902 14.045 15.9664C15.624 14.2211 16.5485 11.8374 16.5988 9.39731L19.1314 6.86486C19.2016 6.79464 19.2494 6.70519 19.2687 6.60781C19.2881 6.51042 19.2782 6.40948 19.2401 6.31776Z" fill="#133F68"/>
</svg>
