<svg width="20" height="20" viewBox="0 0 20 20" fill="none" xmlns="http://www.w3.org/2000/svg">
<path d="M14.4922 4.69141C14.4922 4.9825 14.2559 5.21875 13.9648 5.21875H11.3281V7.32812H13.9648C14.1199 7.32812 14.2672 7.39633 14.3674 7.51445C14.4676 7.63293 14.5105 7.78937 14.4852 7.9423L13.9578 11.1064C13.9153 11.3605 13.6952 11.5469 13.4375 11.5469H11.3281V18.4727C11.3281 18.7638 11.0919 19 10.8008 19H7.63672C7.34562 19 7.10937 18.7638 7.10937 18.4727V11.5469H5.52734C5.23625 11.5469 5 11.3106 5 11.0195V7.85547C5 7.56437 5.23625 7.32812 5.52734 7.32812H7.10937V4.69141C7.10937 2.65586 8.76523 1 10.8008 1H13.9648C14.2559 1 14.4922 1.23625 14.4922 1.52734V4.69141Z" fill="#133F68"/>
</svg>
