<svg width="50" height="50" viewBox="0 0 50 50" fill="none" xmlns="http://www.w3.org/2000/svg">
<path d="M45.8179 44.9082V44.4002C45.8197 43.3247 45.4279 42.2858 44.7164 41.4794C44.0049 40.673 43.023 40.1548 41.9558 40.0227C42.5981 39.5171 43.1259 38.881 43.5043 38.1564C43.8828 37.4319 44.1033 36.6353 44.1513 35.8192C44.1513 30.3126 40.9816 29.1556 38.3217 29.1556C35.6618 29.1556 32.4904 30.3126 32.4904 35.8192C32.5385 36.6359 32.7591 37.4332 33.1379 38.1583C33.5166 38.8835 34.0448 39.5201 34.6876 40.0262C33.6207 40.1575 32.6388 40.675 31.9273 41.4808C31.2158 42.2866 30.8239 43.3251 30.8255 44.4002V44.9065C29.5535 43.4637 28.7247 41.6845 28.4386 39.7824C28.1525 37.8802 28.4213 35.9359 29.2126 34.1828C30.004 32.4296 31.2844 30.9421 32.9002 29.8986C34.5159 28.8552 36.3984 28.3001 38.3217 28.3001C40.245 28.3001 42.1275 28.8552 43.7433 29.8986C45.359 30.9421 46.6394 32.4296 47.4308 34.1828C48.2222 35.9359 48.4909 37.8802 48.2048 39.7824C47.9188 41.6845 47.0899 43.4637 45.8179 44.9065V44.9082ZM39.0089 44.7899L38.3217 45.4858L37.6258 44.7899L38.3217 43.0692L39.0089 44.7899ZM34.2022 34.9388C34.4266 32.1551 35.7401 30.8223 38.3217 30.8223C40.6859 30.8223 41.9854 31.9393 42.3577 34.2725L39.583 32.6109C39.3933 32.4974 39.1664 32.4639 38.952 32.5177C38.7377 32.5716 38.5535 32.7083 38.44 32.898C38.4088 32.9494 38.3837 33.0043 38.3652 33.0615C37.9425 34.3212 35.667 34.7997 34.2022 34.9388ZM39.4699 34.4813L42.4464 36.2646C42.1124 38.3037 39.6004 39.9809 38.3217 39.9809C37.4098 39.826 36.555 39.4329 35.8438 38.8414C35.1327 38.25 34.5903 37.4811 34.2718 36.6126C35.6983 36.4925 38.273 36.0593 39.4699 34.4813ZM44.1513 46.4184C42.4573 47.6491 40.4172 48.3119 38.3234 48.3119C36.2297 48.3119 34.1896 47.6491 32.4956 46.4184V44.4002C32.4974 43.672 32.7881 42.9743 33.3037 42.4602C33.8194 41.9461 34.5179 41.6577 35.246 41.6581H37.0953L35.8879 44.6803C35.8267 44.8314 35.8115 44.9973 35.8443 45.1571C35.8771 45.3168 35.9565 45.4633 36.0723 45.578L37.7372 47.2448C37.8934 47.4009 38.1052 47.4886 38.3261 47.4886C38.5469 47.4886 38.7587 47.4009 38.9149 47.2448L40.5815 45.578C40.697 45.463 40.7761 45.3166 40.8089 45.1569C40.8417 44.9973 40.8267 44.8315 40.7659 44.6803L39.5516 41.6581H41.4026C42.1316 41.6581 42.8308 41.9478 43.3462 42.4633C43.8617 42.9788 44.1513 43.678 44.1513 44.4071V46.4184ZM28.6353 13.3682C29.2777 12.8625 29.8056 12.2264 30.1843 11.5019C30.563 10.7774 30.7839 9.9808 30.8325 9.16467C30.8325 3.6563 27.6611 2.50104 25.0029 2.50104C22.3447 2.50104 19.1716 3.6563 19.1716 9.16467C19.2196 9.98117 19.4402 10.7782 19.819 11.5031C20.1977 12.228 20.726 12.8643 21.3688 13.3699C20.3009 13.5001 19.3178 14.017 18.6052 14.823C17.8926 15.6289 17.5 16.668 17.5015 17.7439V18.2502C16.2292 16.8075 15.4001 15.0283 15.1138 13.1261C14.8275 11.2239 15.0962 9.27943 15.8875 7.52611C16.6788 5.7728 17.9592 4.28509 19.575 3.24152C21.1908 2.19796 23.0734 1.64287 24.9968 1.64287C26.9203 1.64287 28.8028 2.19796 30.4186 3.24152C32.0345 4.28509 33.3148 5.7728 34.1062 7.52611C34.8975 9.27943 35.1661 11.2239 34.8798 13.1261C34.5935 15.0283 33.7645 16.8075 32.4921 18.2502V17.7439C32.4948 16.6692 32.1039 15.6308 31.3933 14.8246C30.6828 14.0185 29.7017 13.5004 28.6353 13.3682ZM25.6779 18.1267L24.9907 18.8226L24.2949 18.1267L24.9907 16.4042L25.6779 18.1267ZM26.1389 7.82673L29.1155 9.61356C28.7814 11.6527 26.2676 13.3299 24.9907 13.3299C24.0781 13.1743 23.2227 12.7802 22.5115 12.1874C21.8002 11.5947 21.2584 10.8243 20.9408 9.95457C22.3725 9.83626 24.9472 9.40477 26.1441 7.82673H26.1389ZM25.109 6.2365C25.0774 6.29161 25.0517 6.34994 25.0325 6.41049C24.6115 7.67362 22.336 8.15034 20.8712 8.29127C21.0956 5.50751 22.4091 4.17478 24.9907 4.17478C27.3532 4.17478 28.6544 5.2935 29.0267 7.62491L26.252 5.95987C26.0641 5.84709 25.8393 5.81288 25.6263 5.86466C25.4134 5.91644 25.2294 6.05003 25.1142 6.2365H25.109ZM30.8203 19.7639C29.1263 20.9945 27.0863 21.6574 24.9925 21.6574C22.8987 21.6574 20.8586 20.9945 19.1646 19.7639V17.7439C19.1646 17.0148 19.4542 16.3156 19.9697 15.8001C20.4852 15.2845 21.1843 14.9949 21.9133 14.9949H23.7643L22.5465 18.017C22.486 18.1687 22.4714 18.3348 22.5045 18.4948C22.5376 18.6547 22.6169 18.8013 22.7327 18.9165L24.3975 20.5816C24.5538 20.7377 24.7656 20.8253 24.9864 20.8253C25.2072 20.8253 25.419 20.7377 25.5753 20.5816L27.2418 18.9165C27.3569 18.8009 27.4356 18.6542 27.4684 18.4943C27.5012 18.3345 27.4865 18.1686 27.4262 18.017L26.2189 14.9949H28.0699C28.7988 14.9954 29.4976 15.2851 30.013 15.8006C30.5284 16.316 30.8181 17.015 30.8186 17.7439L30.8203 19.7639ZM13.335 30.5649C14.4079 31.7825 14.9999 33.3498 14.9999 34.9728C14.9999 36.5958 14.4079 38.163 13.335 39.3807V39.151C13.334 38.2568 13.0933 37.3793 12.6381 36.6097C12.1828 35.8401 11.5296 35.2067 10.7464 34.7753C11.1969 34.3034 11.499 33.7097 11.6152 33.0677C11.7314 32.4257 11.6565 31.7637 11.3999 31.1639C11.1434 30.564 10.7163 30.0527 10.1718 29.6934C9.62735 29.3341 8.98936 29.1425 8.33701 29.1425C7.68466 29.1425 7.04667 29.3341 6.50218 29.6934C5.95768 30.0527 5.53066 30.564 5.27408 31.1639C5.0175 31.7637 4.94265 32.4257 5.05882 33.0677C5.175 33.7097 5.47708 34.3034 5.92759 34.7753C5.14443 35.2067 4.49122 35.8401 4.03595 36.6097C3.58068 37.3793 3.34001 38.2568 3.33898 39.151V39.3807C2.20349 38.0503 1.63642 36.3268 1.76009 34.582C1.88376 32.8372 2.68826 31.211 4.00004 30.0541C5.31182 28.8972 7.02575 28.3023 8.77211 28.3979C10.5185 28.4934 12.1573 29.2717 13.335 30.5649ZM6.67216 32.4787C6.67216 32.149 6.76995 31.8266 6.95315 31.5525C7.13636 31.2784 7.39675 31.0647 7.70138 30.9386C8.00601 30.8125 8.34119 30.7796 8.66453 30.8441C8.98786 30.9085 9.28481 31.0674 9.51782 31.3007C9.75083 31.534 9.90942 31.8311 9.97353 32.1546C10.0376 32.478 10.0044 32.8132 9.87798 33.1177C9.75157 33.4223 9.53769 33.6825 9.26339 33.8654C8.98909 34.0483 8.66671 34.1458 8.33701 34.1455C7.89653 34.1459 7.47385 33.9716 7.16173 33.6608C6.84961 33.3499 6.67354 32.9279 6.67216 32.4874V32.4787ZM11.6685 40.7412C10.6573 41.3313 9.50766 41.6422 8.33701 41.6422C7.16636 41.6422 6.0167 41.3313 5.00557 40.7412V39.1423C5.00557 38.2587 5.35656 37.4112 5.98133 36.7864C6.60609 36.1615 7.45346 35.8105 8.33701 35.8105C9.22056 35.8105 10.0679 36.1615 10.6927 36.7864C11.3175 37.4112 11.6685 38.2587 11.6685 39.1423V40.7412ZM18.3313 46.6393C18.4962 46.639 18.6575 46.6876 18.7948 46.7789C18.932 46.8703 19.0391 47.0004 19.1024 47.1526C19.1658 47.3049 19.1825 47.4725 19.1506 47.6342C19.1186 47.796 19.0394 47.9447 18.9229 48.0614C18.8064 48.1781 18.658 48.2577 18.4963 48.29C18.3346 48.3223 18.167 48.3059 18.0146 48.2429C17.8622 48.1798 17.732 48.073 17.6403 47.9359C17.5487 47.7988 17.4998 47.6376 17.4998 47.4727C17.5021 47.2535 17.5906 47.044 17.7463 46.8897C17.9019 46.7353 18.1121 46.6485 18.3313 46.648V46.6393ZM2.50047 3.31703C2.33551 3.31738 2.17416 3.26875 2.03686 3.17731C1.89956 3.08587 1.79248 2.95573 1.7292 2.80337C1.66591 2.65102 1.64926 2.48331 1.68136 2.32149C1.71346 2.15966 1.79286 2.01101 1.9095 1.89435C2.02614 1.77769 2.17478 1.69829 2.33659 1.66619C2.49839 1.63408 2.66608 1.65073 2.81842 1.71403C2.97076 1.77732 3.10088 1.88441 3.19231 2.02172C3.28374 2.15904 3.33237 2.32041 3.33202 2.48538C3.3341 2.59532 3.31435 2.70459 3.27392 2.80684C3.2335 2.9091 3.1732 3.00233 3.09651 3.08113C3.01983 3.15993 2.92828 3.22273 2.82716 3.26591C2.72604 3.30909 2.61737 3.33179 2.50743 3.33269L2.50047 3.31703ZM47.4758 1.65199C47.6407 1.65165 47.8019 1.70023 47.9392 1.7916C48.0765 1.88296 48.1835 2.013 48.2469 2.16525C48.3102 2.3175 48.327 2.48512 48.295 2.6469C48.2631 2.80868 48.1838 2.95733 48.0674 3.07406C47.9509 3.19079 47.8024 3.27033 47.6407 3.30263C47.479 3.33493 47.3114 3.31853 47.159 3.2555C47.0067 3.19247 46.8764 3.08566 46.7848 2.94857C46.6931 2.81148 46.6442 2.65029 46.6442 2.48538C46.6479 2.26603 46.7381 2.057 46.8951 1.90384C47.0522 1.75068 47.2634 1.66579 47.4827 1.66765L47.4758 1.65199ZM48.3091 17.4846C48.3094 17.9793 48.163 18.4629 47.8885 18.8743C47.6139 19.2857 47.2235 19.6065 46.7667 19.7959C46.3098 19.9854 45.807 20.035 45.3219 19.9386C44.8368 19.8422 44.3912 19.604 44.0415 19.2543C43.6918 18.9045 43.4537 18.4589 43.3573 17.9737C43.2608 17.4886 43.3105 16.9857 43.4999 16.5288C43.6894 16.0719 44.01 15.6814 44.4214 15.4068C44.8328 15.1323 45.3163 14.9859 45.8109 14.9862C46.1403 14.9853 46.4666 15.0495 46.7711 15.1752C47.0755 15.3009 47.3521 15.4856 47.585 15.7186C47.8178 15.9516 48.0022 16.2284 48.1277 16.533C48.2532 16.8375 48.3172 17.1639 48.316 17.4933L48.3091 17.4846ZM38.741 26.6676L33.3341 19.7847C35.2541 17.8165 36.4137 15.2308 36.6064 12.4878H44.9881V13.4047C43.9769 13.6112 43.0784 14.1859 42.4668 15.0173C41.8551 15.8487 41.574 16.8776 41.6777 17.9045C41.7815 18.9314 42.2628 19.8833 43.0284 20.5754C43.794 21.2676 44.7893 21.6509 45.8214 21.6509C46.8534 21.6509 47.8487 21.2676 48.6143 20.5754C49.3799 19.8833 49.8612 18.9314 49.965 17.9045C50.0688 16.8776 49.7876 15.8487 49.176 15.0173C48.5643 14.1859 47.6658 13.6112 46.6547 13.4047V11.6631C46.6542 11.4422 46.5663 11.2305 46.4101 11.0743C46.2539 10.9181 46.0422 10.8302 45.8214 10.8297H36.6134C36.4516 8.5224 35.6034 6.31623 34.1778 4.49491L35.3399 3.33269H45.1429C45.3393 3.88889 45.726 4.35773 46.2346 4.65633C46.7433 4.95492 47.3411 5.06405 47.9224 4.96441C48.5037 4.86477 49.0311 4.56279 49.4113 4.11184C49.7915 3.66089 50 3.09003 50 2.50017C50 1.91031 49.7915 1.33945 49.4113 0.888505C49.0311 0.437558 48.5037 0.135572 47.9224 0.0359332C47.3411 -0.0637057 46.7433 0.0454203 46.2346 0.344019C45.726 0.642617 45.3393 1.11146 45.1429 1.66765H34.9903C34.8808 1.66752 34.7724 1.68896 34.6712 1.73075C34.57 1.77255 34.478 1.83388 34.4005 1.91123L33.0558 3.25614C31.461 1.72063 29.4614 0.671914 27.2917 0.233074C25.1219 -0.205767 22.872 -0.0165246 20.806 0.778591C18.74 1.57371 16.9436 2.9417 15.6277 4.72203C14.3118 6.50236 13.5309 8.62114 13.3768 10.8297H6.38164L3.65734 4.70543C4.17443 4.4337 4.57959 3.98888 4.80204 3.4487C5.02449 2.90853 5.05007 2.30736 4.87431 1.75024C4.69855 1.19312 4.33262 0.715481 3.84049 0.400796C3.34835 0.0861108 2.76129 -0.0456114 2.1819 0.0286476C1.60251 0.102907 1.06764 0.378424 0.670751 0.807054C0.27386 1.23568 0.0401938 1.79017 0.0105838 2.37361C-0.0190263 2.95705 0.157303 3.53235 0.508759 3.99897C0.860215 4.46558 1.36445 4.79385 1.93334 4.9264L5.0769 12.0024C5.14299 12.1507 5.25098 12.2765 5.38758 12.3643C5.52419 12.4521 5.68346 12.498 5.84582 12.4965H13.3768C13.5686 15.2081 14.7057 17.7664 16.5899 19.7256L9.55825 26.7563C7.37474 26.4292 5.15072 26.9829 3.37544 28.2957C1.60015 29.6085 0.419036 31.5729 0.0919141 33.7566C-0.235208 35.9404 0.318462 38.1646 1.63112 39.9401C2.94378 41.7156 4.90791 42.8969 7.09142 43.224C7.22943 43.2449 7.36686 43.2623 7.50372 43.2762V47.4832C7.50418 47.7041 7.59212 47.9158 7.74829 48.072C7.90446 48.2282 8.11615 48.3161 8.33701 48.3166H15.9915C16.188 48.8721 16.5746 49.3403 17.0829 49.6384C17.5913 49.9365 18.1886 50.0453 18.7693 49.9456C19.3501 49.8458 19.8769 49.544 20.2566 49.0934C20.6364 48.6428 20.8447 48.0725 20.8447 47.4832C20.8447 46.8939 20.6364 46.3235 20.2566 45.8729C19.8769 45.4223 19.3501 45.1205 18.7693 45.0208C18.1886 44.9211 17.5913 45.0298 17.0829 45.3279C16.5746 45.626 16.188 46.0942 15.9915 46.6498H9.17031V43.2745C11.0258 43.0883 12.7651 42.2843 14.1093 40.9916C15.4534 39.6988 16.3246 37.9921 16.5831 36.145C16.8417 34.298 16.4726 32.4176 15.535 30.8054C14.5975 29.1932 13.1458 27.9425 11.4127 27.2539L17.8251 20.8408C19.8557 22.4405 22.3629 23.3151 24.9478 23.3255C27.5327 23.3359 30.0468 22.4815 32.0903 20.8982L36.7108 26.7807C33.7345 27.1963 31.0334 28.7448 29.1706 31.1034C27.3078 33.4619 26.4272 36.4485 26.7121 39.4405C26.9971 42.4325 28.4257 45.1991 30.7002 47.1635C32.9747 49.1279 35.9196 50.1385 38.9208 49.9847C41.9221 49.8309 44.7482 48.5245 46.8101 46.3379C48.8719 44.1513 50.0103 41.2532 49.988 38.2477C49.9657 35.2423 48.7844 32.3614 46.6904 30.2056C44.5963 28.0498 41.7512 26.7855 38.7479 26.6763L38.741 26.6676Z" fill="#133F68"/>
</svg>
