<svg width="42" height="50" viewBox="0 0 42 50" fill="none" xmlns="http://www.w3.org/2000/svg">
<path d="M34.2394 42.2486C34.0323 42.2232 33.8228 42.2715 33.6486 42.3846C33.4743 42.4977 33.3467 42.6683 33.2886 42.8658L32.0084 47.2687L27.4115 41.4447L27.7119 41.1705C28.5976 40.296 29.5742 39.5158 30.6257 38.8429C31.785 38.2527 33.0035 37.7832 34.2616 37.442L34.7464 37.2906L39.1384 42.8523L34.2394 42.2486ZM21.0018 43.1029C18.9807 43.1029 17.2806 41.5523 15.4797 39.9075C14.5001 38.9431 13.4179 38.0855 12.2519 37.3495C10.9829 36.6955 9.64749 36.1752 8.26778 35.7972C5.95483 35.074 3.76991 34.3912 2.80547 32.7581C1.89053 31.1991 2.36165 29.0262 2.8635 26.7238C3.22373 25.3122 3.43537 23.8678 3.49508 22.4134C3.4367 20.9595 3.22562 19.5156 2.86521 18.1046C2.36336 15.8022 1.89053 13.6293 2.80547 12.0686C3.7682 10.4373 5.94971 9.75445 8.26778 9.03128C9.64694 8.65323 10.9818 8.13292 12.2502 7.47897C13.4156 6.74284 14.4972 5.88522 15.4763 4.92095C17.2789 3.27615 18.979 1.72553 21.0001 1.72553C23.0212 1.72553 24.7213 3.27783 26.5222 4.92095C27.5018 5.88526 28.584 6.74287 29.75 7.47897C31.0184 8.13292 32.3533 8.65323 33.7324 9.03128C36.0454 9.75445 38.2303 10.4373 39.1947 12.0686C40.1097 13.6293 39.6368 15.8022 39.135 18.1046C38.7749 19.5157 38.5632 20.9596 38.5034 22.4134C38.5631 23.8678 38.7748 25.3122 39.135 26.7238C39.6368 29.0245 40.108 31.1991 39.193 32.7581C38.2303 34.3912 36.0505 35.074 33.7307 35.7972C32.3521 36.1753 31.0179 36.6956 29.75 37.3495C28.584 38.0855 27.5018 38.9431 26.5222 39.9075C24.723 41.5523 23.0229 43.1029 21.0018 43.1029ZM9.99353 47.2687L8.71842 42.8658C8.66033 42.6683 8.53271 42.4977 8.35845 42.3846C8.1842 42.2715 7.97473 42.2232 7.76764 42.2486L2.86862 42.8523L7.26067 37.2906L7.74374 37.442C9.00081 37.7829 10.2182 38.2524 11.3762 38.8429C12.4293 39.5143 13.4067 40.2946 14.2917 41.1705L14.5921 41.4447L9.99353 47.2687ZM41.8166 43.4376L36.4926 36.6936C38.2179 36.1853 39.7083 35.0983 40.7054 33.6209C41.9583 31.485 41.3882 28.8799 40.8437 26.3623C40.511 25.0691 40.3125 23.746 40.2513 22.4134C40.3132 21.0801 40.5122 19.7565 40.8454 18.4628C41.3899 15.9401 41.96 13.3384 40.7071 11.2075C39.4081 8.99764 36.793 8.18029 34.265 7.38984C33.0063 7.04746 31.7872 6.57682 30.6274 5.98553C29.5756 5.31303 28.5989 4.53282 27.7136 3.65792C25.836 1.94248 23.7108 0 21.0035 0C18.2962 0 16.1694 1.94248 14.2917 3.65792C13.4062 4.53331 12.4289 5.31356 11.3762 5.98553C10.2169 6.57572 8.99839 7.04524 7.74033 7.38648C5.2123 8.17524 2.59722 8.99428 1.29821 11.2042C0.0452909 13.3384 0.61542 15.9452 1.15994 18.4628C1.49367 19.7564 1.69327 21.0801 1.75568 22.4134C1.69367 23.7471 1.49523 25.0712 1.16336 26.3656C0.618834 28.8883 0.0469979 31.4884 1.30162 33.6209C2.29785 35.0973 3.78704 36.1838 5.51102 36.6919L0.185263 43.4359C0.0785629 43.5705 0.0148788 43.7332 0.00230395 43.9036C-0.0102709 44.0739 0.0288315 44.244 0.114642 44.3924C0.200451 44.5407 0.329094 44.6606 0.484219 44.7367C0.639343 44.8129 0.813946 44.8419 0.985834 44.82L7.24189 44.0514L8.77817 49.3744C8.82291 49.5287 8.91055 49.6677 9.0312 49.7755C9.15185 49.8834 9.3007 49.9559 9.46096 49.9848C9.51723 49.9953 9.57439 50.0003 9.63165 50C9.76385 49.9983 9.89396 49.9672 10.0122 49.909C10.1305 49.8507 10.2338 49.7668 10.3144 49.6636L15.9014 42.5832C17.2774 43.9016 19.0836 44.696 20.9984 44.8251C22.9126 44.6956 24.7182 43.9012 26.0937 42.5832L31.6806 49.6619C31.7614 49.7651 31.8647 49.8489 31.9829 49.9071C32.1012 49.9654 32.2312 49.9965 32.3634 49.9983C32.4207 49.9986 32.4778 49.9935 32.5341 49.9832C32.6927 49.9526 32.8397 49.8794 32.9587 49.7717C33.0777 49.6639 33.1641 49.5258 33.2084 49.3727L34.7532 44.0498L41.0161 44.8217C41.1878 44.8432 41.3622 44.8139 41.517 44.7376C41.6718 44.6613 41.8002 44.5414 41.8858 44.3931C41.9713 44.2449 42.0103 44.0749 41.9977 43.9048C41.9851 43.7346 41.9215 43.572 41.8149 43.4376H41.8166Z" fill="#133F68"/>
<path d="M21.2241 35.6508C18.5043 35.6508 15.8456 34.835 13.5842 33.3065C11.3228 31.7781 9.56028 29.6056 8.51947 27.0639C7.47866 24.5222 7.20634 21.7254 7.73694 19.0271C8.26754 16.3288 9.57723 13.8503 11.5004 11.9049C13.4236 9.95956 15.8738 8.63476 18.5413 8.09803C21.2089 7.56131 23.9738 7.83678 26.4865 8.88959C28.9993 9.94241 31.147 11.7253 32.658 14.0128C34.169 16.3003 34.9755 18.9896 34.9755 21.7408C34.9755 23.5675 34.6198 25.3763 33.9288 27.0639C33.2377 28.7516 32.2248 30.285 30.9478 31.5767C29.6709 32.8683 28.1549 33.8929 26.4865 34.592C24.8181 35.291 23.03 35.6508 21.2241 35.6508ZM21.2241 6.08691C18.1635 6.08624 15.1714 7.0037 12.6263 8.72325C10.0812 10.4428 8.09737 12.8872 6.92574 15.7473C5.75411 18.6074 5.4473 21.7547 6.04411 24.7912C6.64093 27.8277 8.11455 30.617 10.2786 32.8062C12.4427 34.9955 15.2 36.4864 18.2018 37.0905C21.2036 37.6945 24.3151 37.3845 27.1427 36.1996C29.9703 35.0148 32.387 33.0084 34.0872 30.4341C35.7875 27.8598 36.6948 24.8333 36.6944 21.7374C36.694 17.5871 35.064 13.6068 32.1629 10.6719C29.2618 7.73704 25.3271 6.08781 21.2241 6.08691Z" fill="#133F68"/>
<path d="M25.1153 23.495C24.963 23.6009 24.8497 23.7507 24.7916 23.9226C24.7336 24.0945 24.7338 24.2797 24.7923 24.4515L26.6765 30.0288L21.7413 26.5833C21.5899 26.4774 21.4075 26.4204 21.2203 26.4204C21.0331 26.4204 20.8507 26.4774 20.6994 26.5833L15.7607 30.0288L17.6448 24.4515C17.7022 24.2796 17.702 24.0948 17.644 23.9231C17.586 23.7514 17.4733 23.6016 17.3218 23.495L12.3866 20.0494H18.4836C18.6716 20.0493 18.8547 19.9918 19.0067 19.8854C19.1587 19.7789 19.2716 19.6288 19.3292 19.4568L21.2151 13.8811L23.1027 19.4618C23.1612 19.6335 23.2746 19.7831 23.4268 19.8892C23.579 19.9953 23.7621 20.0526 23.9501 20.0527H30.0505L25.1153 23.495ZM31.4884 19.0411C31.3233 18.8233 31.107 18.6461 30.8571 18.5239C30.6072 18.4018 30.3309 18.3382 30.0505 18.3383H24.6013L22.9099 13.3519C22.7931 13.0093 22.5666 12.7109 22.2629 12.4993C21.9592 12.2877 21.5937 12.1738 21.2186 12.1738C20.8435 12.1738 20.478 12.2877 20.1742 12.4993C19.8705 12.7109 19.644 13.0093 19.5272 13.3519L17.8393 18.3383H12.3866C12.0111 18.3387 11.6454 18.4533 11.3418 18.6658C11.0383 18.8783 10.8125 19.1777 10.6968 19.5211C10.5812 19.8645 10.5815 20.2344 10.6979 20.5776C10.8143 20.9207 11.0407 21.2197 11.3447 21.4316L15.7555 24.5133L14.071 29.4997C13.9558 29.8433 13.9565 30.2132 14.073 30.5565C14.1895 30.8998 14.4159 31.1989 14.7198 31.411C15.0238 31.6232 15.3897 31.7376 15.7653 31.7379C16.1409 31.7382 16.507 31.6244 16.8113 31.4127L21.2255 28.3328L25.638 31.4127C25.9421 31.6249 26.3083 31.7391 26.6841 31.739C27.0598 31.7389 27.4259 31.6245 27.7299 31.4122C28.0339 31.1998 28.2602 30.9004 28.3763 30.5569C28.4925 30.2133 28.4925 29.8432 28.3765 29.4997L26.6921 24.5133L31.1029 21.4316C31.4836 21.1637 31.7381 20.7613 31.8104 20.3131C31.8827 19.8648 31.7669 19.4073 31.4884 19.0411Z" fill="#133F68"/>
</svg>
