<svg width="50" height="50" viewBox="0 0 50 50" fill="none" xmlns="http://www.w3.org/2000/svg">
<path d="M49.7354 34.6935L47.4112 32.3822C47.2319 32.204 46.9894 32.1044 46.7369 32.1055C46.4845 32.1065 46.2428 32.2082 46.065 32.3879C45.8873 32.5677 45.788 32.8109 45.7891 33.0641C45.7901 33.3173 45.8915 33.5597 46.0707 33.738L48.3949 36.0574C48.576 36.2277 48.8161 36.3204 49.0643 36.3158C49.3125 36.3112 49.5491 36.2097 49.7238 36.0328C49.8984 35.856 49.9974 35.6177 49.9996 35.3688C50.0017 35.1199 49.9069 34.8799 49.7354 34.7V34.6935Z" fill="#133F68"/>
<path d="M44.954 30.2311C44.7566 30.0831 44.489 30 44.2099 30C43.9309 30 43.6633 30.0831 43.4659 30.2311C43.3189 30.3416 43.2188 30.4824 43.1783 30.6355C43.1378 30.7887 43.1588 30.9474 43.2385 31.0917C43.3182 31.2359 43.4531 31.3592 43.6262 31.4459C43.7993 31.5327 44.0027 31.579 44.2108 31.579C44.419 31.579 44.6224 31.5327 44.7955 31.4459C44.9685 31.3592 45.1035 31.2359 45.1832 31.0917C45.2629 30.9474 45.2838 30.7887 45.2434 30.6355C45.2029 30.4824 45.1028 30.3416 44.9558 30.2311H44.954Z" fill="#133F68"/>
<path d="M25.9665 11.4504L23.2999 8.74477C23.6055 8.81109 23.9172 8.84441 24.2297 8.84417H24.2513L26.9163 8.83238C27.1739 8.83238 27.421 8.72854 27.6031 8.54372C27.7853 8.3589 27.8876 8.10822 27.8876 7.84684C27.8876 7.58546 27.7853 7.33479 27.6031 7.14996C27.421 6.96514 27.1739 6.86131 26.9163 6.86131L24.2513 6.87478H24.2397C23.5857 6.87389 22.9588 6.6098 22.4966 6.14046C22.0343 5.67112 21.7744 5.03488 21.774 4.37136V4.06138H28.4272C29.0475 4.06222 29.6609 4.1923 30.2296 4.44355C30.7983 4.69479 31.31 5.06186 31.7331 5.52199L31.773 5.56579L25.9665 11.4504ZM25.7092 16.4404C25.387 16.7665 24.9505 16.9496 24.4954 16.9496C24.0403 16.9496 23.6038 16.7665 23.2816 16.4404L18.4034 11.4908L17.4553 10.5288C17.2906 10.3683 17.1591 10.1761 17.0685 9.96339C16.9779 9.75068 16.9301 9.52178 16.9278 9.29008C16.9255 9.05838 16.9688 8.82855 17.0551 8.61403C17.1414 8.39951 17.2691 8.20463 17.4306 8.04078C17.592 7.87694 17.7841 7.74743 17.9956 7.65984C18.207 7.57225 18.4335 7.52833 18.6619 7.53067C18.8902 7.533 19.1158 7.58154 19.3255 7.67343C19.5351 7.76533 19.7246 7.89874 19.8828 8.06585L25.7092 13.9774C25.8687 14.139 25.9953 14.331 26.0816 14.5423C26.168 14.7536 26.2125 14.9801 26.2125 15.2089C26.2125 15.4376 26.168 15.6641 26.0816 15.8755C25.9953 16.0868 25.8687 16.2787 25.7092 16.4404ZM21.9085 20.2966C21.5863 20.6227 21.1498 20.8059 20.6947 20.8059C20.2396 20.8059 19.8031 20.6227 19.481 20.2966L14.6043 15.3487C14.2931 15.0199 14.1213 14.5804 14.1258 14.1245C14.1303 13.6686 14.3108 13.2327 14.6286 12.9103C14.9463 12.5879 15.3759 12.4047 15.8253 12.4002C16.2746 12.3956 16.7078 12.5699 17.0319 12.8857L19.2551 15.1415L21.9118 17.837C22.0714 17.9986 22.1979 18.1906 22.2843 18.4019C22.3707 18.6132 22.4151 18.8397 22.4151 19.0685C22.4151 19.2972 22.3707 19.5237 22.2843 19.7351C22.1979 19.9464 22.0714 20.1383 21.9118 20.3L21.9085 20.2966ZM18.1078 24.1528C17.9485 24.3147 17.7593 24.4431 17.551 24.5307C17.3428 24.6184 17.1195 24.6635 16.894 24.6635C16.6686 24.6635 16.4453 24.6184 16.2371 24.5307C16.0288 24.4431 15.8396 24.3147 15.6803 24.1528L13.0568 21.4927L11.7617 20.1686C11.4408 19.8417 11.2606 19.3992 11.2606 18.9379C11.2606 18.4766 11.4408 18.0341 11.7617 17.7072C11.921 17.5454 12.1102 17.4169 12.3185 17.3293C12.5268 17.2417 12.75 17.1966 12.9755 17.1966C13.2009 17.1966 13.4242 17.2417 13.6325 17.3293C13.8407 17.4169 14.0299 17.5454 14.1892 17.7072L18.1178 21.6915C18.2773 21.8531 18.4039 22.0451 18.4903 22.2564C18.5766 22.4677 18.6211 22.6942 18.6211 22.923C18.6211 23.1518 18.5766 23.3783 18.4903 23.5896C18.4039 23.8009 18.2773 23.9929 18.1178 24.1545L18.1078 24.1528ZM14.3071 28.0107C14.1477 28.1727 13.9583 28.3011 13.7499 28.3888C13.5415 28.4764 13.3181 28.5215 13.0925 28.5215C12.8669 28.5215 12.6436 28.4764 12.4351 28.3888C12.2267 28.3011 12.0374 28.1727 11.878 28.0107L9.25451 25.3489C9.09501 25.1871 8.96848 24.995 8.88216 24.7835C8.79584 24.5721 8.75141 24.3455 8.75141 24.1166C8.75141 23.6544 8.93238 23.2111 9.25451 22.8843C9.57664 22.5574 10.0135 22.3738 10.4691 22.3738C10.9247 22.3738 11.3616 22.5574 11.6837 22.8843L14.3071 25.546C14.6289 25.873 14.8097 26.316 14.81 26.778C14.8103 27.24 14.6301 27.6833 14.3088 28.0107H14.3071ZM36.3524 34.554L45.7719 24.9985C46.2333 24.5305 46.5627 23.9457 46.7259 23.3047C46.8892 22.6638 46.8802 21.9903 46.7001 21.3541C46.5199 20.7178 46.1751 20.1422 45.7015 19.6869C45.2279 19.2317 44.6427 18.9134 44.0069 18.7652C44.2449 18.2483 44.3621 17.6826 44.3493 17.1121C44.3365 16.5417 44.1941 15.982 43.9331 15.4766C43.6721 14.9711 43.2997 14.5337 42.8448 14.1982C42.3898 13.8628 41.8647 13.6385 41.3104 13.5427C41.4757 13.0363 41.5313 12.4997 41.4734 11.9695C41.4156 11.4392 41.2456 10.9279 40.9751 10.4705C40.7046 10.013 40.3399 9.62024 39.906 9.31892C39.4722 9.0176 38.9793 8.81486 38.4611 8.72456C38.5822 8.34817 38.6439 7.95471 38.6437 7.55876C38.6432 6.91556 38.478 6.28353 38.1645 5.72453C37.8509 5.16554 37.3996 4.69873 36.8548 4.36981C36.3101 4.04088 35.6904 3.86112 35.0566 3.8481C34.4228 3.83508 33.7966 3.98926 33.2391 4.29555L33.1445 4.19447C32.5395 3.53636 31.8078 3.01136 30.9946 2.65202C30.1815 2.29267 29.3042 2.10664 28.4173 2.10547H20.7943C20.5367 2.10547 20.2897 2.2093 20.1075 2.39413C19.9253 2.57895 19.823 2.82962 19.823 3.091V4.38146C19.8225 4.89038 19.9073 5.39568 20.0737 5.87577C19.4269 5.60117 18.7158 5.52126 18.0254 5.6456C17.335 5.76993 16.6944 6.09326 16.1802 6.57696C15.666 7.06066 15.2999 7.6843 15.1256 8.37341C14.9512 9.06251 14.9761 9.78797 15.1971 10.4631C14.6788 10.5531 14.1858 10.7555 13.7517 11.0565C13.3175 11.3575 12.9526 11.7501 12.6818 12.2074C12.4109 12.6647 12.2406 13.1759 12.1824 13.7061C12.1242 14.2364 12.1795 14.7731 12.3445 15.2796C11.7903 15.3756 11.2654 15.6001 10.8107 15.9356C10.3559 16.2711 9.98368 16.7086 9.7229 17.214C9.46211 17.7194 9.31983 18.2791 9.30713 18.8494C9.29443 19.4197 9.41166 19.9853 9.64968 20.5021C9.01185 20.6492 8.42463 20.9673 7.94937 21.4233C7.47411 21.8793 7.12825 22.4564 6.9479 23.0944C6.76756 23.7323 6.75935 24.4077 6.92413 25.0499C7.08891 25.6922 7.42064 26.2778 7.88467 26.7455L9.82071 28.7099L0.284978 38.3816C0.102665 38.5663 0.000155866 38.817 1.77599e-07 39.0784C-0.000155511 39.3399 0.102055 39.5907 0.284147 39.7757C0.466239 39.9606 0.713297 40.0646 0.97097 40.0648C1.22864 40.065 1.47582 39.9612 1.65814 39.7765L11.2885 30.0054C11.8548 30.3318 12.4969 30.4987 13.1481 30.4887C13.7994 30.4787 14.4362 30.2922 14.9925 29.9486C15.5489 29.6049 16.0045 29.1165 16.3123 28.5341C16.6201 27.9517 16.7688 27.2964 16.743 26.636H16.8907C17.3704 26.636 17.8454 26.5402 18.2886 26.3539C18.7318 26.1676 19.1345 25.8946 19.4737 25.5505C19.8129 25.2063 20.082 24.7977 20.2656 24.3481C20.4491 23.8984 20.5436 23.4165 20.5436 22.9297C20.5436 22.8809 20.5436 22.8303 20.5436 22.7798C20.5918 22.7798 20.6399 22.7798 20.6897 22.7798C21.6586 22.7798 22.5877 22.3893 23.2727 21.6943C23.9578 20.9992 24.3426 20.0565 24.3426 19.0735C24.3426 19.023 24.3426 18.9741 24.3426 18.9236H24.4888C25.1819 18.9245 25.861 18.7253 26.4468 18.3493C27.0326 17.9732 27.5008 17.4359 27.7968 16.7999C28.0928 16.164 28.2043 15.4557 28.1184 14.7578C28.0324 14.0599 27.7526 13.4013 27.3115 12.8588L33.7572 6.32053C34.0784 5.9919 34.5152 5.80622 34.9713 5.80432C35.1972 5.80338 35.4211 5.8476 35.6301 5.93443C35.8391 6.02127 36.0293 6.14903 36.1897 6.31042C36.35 6.47181 36.4775 6.66367 36.5648 6.87504C36.6521 7.08642 36.6975 7.31317 36.6984 7.54235C36.6994 7.77153 36.6558 7.99865 36.5702 8.21074C36.4846 8.42284 36.3587 8.61575 36.1996 8.77847L35.2499 9.7421L31.8012 13.2429C31.6191 13.4285 31.5172 13.6799 31.5178 13.9419C31.5184 14.2038 31.6215 14.4547 31.8045 14.6395C31.9875 14.8242 32.2353 14.9276 32.4934 14.927C32.7516 14.9264 32.9989 14.8217 33.181 14.6361L36.6214 11.137C36.9435 10.8102 37.3804 10.6266 37.836 10.6266C38.2915 10.6266 38.7284 10.8102 39.0505 11.137C39.3727 11.4639 39.5536 11.9071 39.5536 12.3694C39.5536 12.8316 39.3727 13.2749 39.0505 13.6017L38.0991 14.5653L35.6085 17.0923C35.4346 17.2788 35.3393 17.5267 35.3428 17.7833C35.3463 18.04 35.4483 18.2851 35.6272 18.4666C35.8061 18.6481 36.0477 18.7516 36.3006 18.7552C36.5536 18.7587 36.7979 18.662 36.9817 18.4856L39.4723 15.9586C39.6305 15.7914 39.82 15.658 40.0296 15.5661C40.2392 15.4742 40.4648 15.4257 40.6932 15.4234C40.9216 15.421 41.1481 15.4649 41.3595 15.5525C41.5709 15.6401 41.763 15.7696 41.9245 15.9335C42.086 16.0973 42.2136 16.2922 42.3 16.5067C42.3863 16.7213 42.4296 16.9511 42.4273 17.1828C42.425 17.4145 42.3771 17.6434 42.2866 17.8561C42.196 18.0688 42.0645 18.261 41.8998 18.4215L40.5964 19.7457L39.4026 20.9553C39.3083 21.0458 39.2328 21.1546 39.1807 21.2752C39.1285 21.3958 39.1007 21.5258 39.0989 21.6575C39.0971 21.7892 39.1214 21.92 39.1702 22.042C39.2191 22.164 39.2915 22.2749 39.3833 22.368C39.4751 22.4612 39.5844 22.5347 39.7047 22.5842C39.8249 22.6338 39.9538 22.6584 40.0836 22.6566C40.2134 22.6548 40.3415 22.6266 40.4604 22.5737C40.5793 22.5207 40.6865 22.4442 40.7757 22.3485L41.9695 21.1372C42.2919 20.8106 42.7289 20.6273 43.1845 20.6276C43.64 20.628 44.0768 20.8119 44.3987 21.1389C44.7206 21.466 44.9013 21.9094 44.901 22.3716C44.9007 22.8338 44.7194 23.277 44.3971 23.6036L34.9792 33.1591C32.6241 35.5544 29.4602 36.9527 26.1276 37.0709C25.8819 37.0808 25.6489 37.1843 25.475 37.3607L16.7745 46.2221C16.601 46.4089 16.5063 46.6571 16.5104 46.9137C16.5144 47.1704 16.6171 47.4153 16.7964 47.5964C16.9757 47.7774 17.2176 47.8804 17.4706 47.8833C17.7235 47.8862 17.9677 47.7888 18.151 47.6119L24.5469 41.0939C26.1751 42.1541 28.0959 42.6555 30.0262 42.5242L35.034 47.6052C35.2162 47.7904 35.4635 47.8946 35.7214 47.8949C35.9135 47.8944 36.1012 47.8361 36.2607 47.7275C36.4203 47.6189 36.5445 47.4647 36.6179 47.2846C36.6912 47.1044 36.7103 46.9062 36.6728 46.7151C36.6353 46.5239 36.5429 46.3482 36.4072 46.2103L31.0822 40.8075C30.9828 40.7063 30.8628 40.6284 30.7306 40.5793C30.5983 40.5301 30.4571 40.5108 30.3168 40.5228L30.0096 40.5481C28.601 40.6655 27.1898 40.354 25.9566 39.6535L26.5809 39.0167C30.2666 38.7929 33.7435 37.2051 36.3524 34.554Z" fill="#133F68"/>
</svg>
