<svg width="43" height="50" viewBox="0 0 43 50" fill="none" xmlns="http://www.w3.org/2000/svg">
<path d="M20.9052 16.1696L17.8237 17.6906L18.4243 14.4991C18.4994 14.282 18.3493 13.9926 18.1991 13.8559L15.7933 11.605L19.1 11.1709C19.3269 11.1709 19.5522 10.9538 19.7023 10.8091L21.2039 7.91502L22.7054 10.8091C22.7519 10.9236 22.8355 11.0206 22.9436 11.0857C23.0518 11.1509 23.1789 11.1807 23.306 11.1709L26.6161 11.605L24.2103 13.8559C24.0605 14.0388 23.9809 14.2661 23.9851 14.4991L24.5874 17.6858L21.656 16.1696C21.5435 16.1039 21.4107 16.0783 21.2806 16.0973C21.1509 16.0861 21.0205 16.1112 20.9052 16.1696ZM25.1129 19.6441C25.3381 19.7888 25.6384 19.7165 25.9471 19.5718C26.0672 19.4946 26.1601 19.3841 26.2138 19.2549C26.2674 19.1258 26.2791 18.984 26.2474 18.8483L25.495 14.5746L28.7199 11.605C28.8219 11.5153 28.8968 11.4007 28.9364 11.2733C28.9761 11.1458 28.9791 11.0104 28.9452 10.8815C28.8701 10.5921 28.6449 10.4473 28.3446 10.375L23.91 9.72382L21.9563 5.88594C21.7311 5.37786 20.8302 5.37786 20.6033 5.88594L18.6496 9.72382L14.2167 10.3766C13.9147 10.449 13.6895 10.5937 13.6144 10.8831C13.5697 11.0113 13.5674 11.1497 13.6077 11.2793C13.6481 11.4089 13.7291 11.5232 13.8396 11.6066L17.0713 14.5763L16.3205 18.8499C16.2888 18.9856 16.3005 19.1274 16.3542 19.2565C16.4078 19.3857 16.5007 19.4962 16.6208 19.5734C16.7397 19.6578 16.8803 19.7092 17.0274 19.7219C17.1745 19.7347 17.3224 19.7083 17.455 19.6457L21.4374 17.6183L25.1129 19.6441Z" fill="#133F68"/>
<path d="M31.9014 48.4798H11.1221V42.2682H31.9014V48.4798ZM15.2191 37.7151H27.6556V40.8217H15.2191V37.7151ZM10.755 18.2428C9.0372 14.7644 8.06998 10.4468 8.06998 5.74901C8.06998 4.68768 8.14438 2.64239 8.21879 1.50537H34.7319C34.8063 2.71808 34.8807 4.76337 34.8807 5.74901C34.8807 10.4468 33.9863 14.7644 32.2734 18.2495C30.3373 22.1904 27.4324 24.9169 24.1554 25.9025C23.3288 26.1296 22.8162 26.8125 22.8162 27.5694V36.1306H20.2089V27.5694C20.1711 27.1887 20.0242 26.8278 19.7864 26.5314C19.5486 26.235 19.2304 26.0163 18.8713 25.9025C15.5911 24.9169 12.6861 22.1904 10.7501 18.2495L10.755 18.2428ZM3.31494 6.04504V5.74229H6.58031C6.58031 9.68149 7.24992 13.3953 8.44199 16.5759C6.83672 15.3522 5.53572 13.7627 4.64334 11.9351C3.75095 10.1074 3.29203 8.09244 3.30337 6.05177L3.31494 6.04504ZM36.382 5.74229H39.6589V6.04504C39.6589 10.2887 37.7229 14.2279 34.5203 16.6533C35.6992 13.4777 36.3704 9.7639 36.3704 5.74901L36.382 5.74229ZM42.2646 48.473H33.3167V41.5096C33.3227 41.4085 33.3076 41.3072 33.2722 41.2124C33.2369 41.1177 33.1821 41.0317 33.1116 40.9601C33.0411 40.8885 32.9564 40.833 32.8632 40.7973C32.77 40.7615 32.6704 40.7463 32.571 40.7527H29.1453V36.8842C29.1513 36.7832 29.1362 36.682 29.1009 36.5874C29.0657 36.4928 29.0111 36.4069 28.9407 36.3353C28.8704 36.2638 28.786 36.2082 28.693 36.1724C28.6 36.1365 28.5005 36.1211 28.4013 36.1273H24.2298V27.566C24.2456 27.512 24.2745 27.463 24.3138 27.4233C24.3531 27.3836 24.4015 27.3546 24.4547 27.3389C28.0293 26.2776 31.2334 23.3224 33.3167 19.0804C38.0833 16.5036 40.9882 11.5115 40.9882 5.97272V4.99212C40.9943 4.8909 40.9791 4.78954 40.9438 4.69472C40.9084 4.59991 40.8537 4.5138 40.7832 4.4421C40.7127 4.3704 40.6281 4.31473 40.5349 4.27878C40.4417 4.24283 40.3421 4.22741 40.2426 4.23355H36.2216C36.2216 3.02084 36.1472 1.42968 36.0728 0.672793C36.0428 0.490858 35.9524 0.324872 35.8167 0.202461C35.6811 0.0800504 35.5083 0.00859924 35.3271 0H7.55083C7.36901 0.00753879 7.19529 0.0785444 7.05889 0.201074C6.92249 0.323604 6.83172 0.490182 6.80186 0.672793C6.72746 1.42968 6.65306 3.02757 6.65306 4.23355H2.55771C2.45843 4.22741 2.359 4.24278 2.266 4.27865C2.173 4.31451 2.08854 4.37006 2.01821 4.4416C1.94789 4.51315 1.89329 4.59907 1.85803 4.69368C1.82278 4.78829 1.80767 4.88944 1.8137 4.99044V6.05177C1.8137 11.6578 4.71864 16.6583 9.48525 19.1595C11.6445 23.4014 14.776 26.281 18.3472 27.418C18.4053 27.4216 18.46 27.4466 18.5011 27.4885C18.5422 27.5303 18.5669 27.586 18.5704 27.645V36.2063H14.4073C14.3079 36.1999 14.2083 36.2151 14.1151 36.2509C14.0219 36.2866 13.9372 36.3422 13.8667 36.4137C13.7962 36.4853 13.7414 36.5713 13.7061 36.666C13.6707 36.7608 13.6556 36.8621 13.6616 36.9632V40.8318H10.2293C10.13 40.8256 10.0306 40.841 9.93756 40.8769C9.84455 40.9128 9.7601 40.9683 9.68977 41.0398C9.61944 41.1114 9.56484 41.1973 9.52959 41.2919C9.49433 41.3865 9.47922 41.4877 9.48525 41.5887V48.4848H0.696034C0.507282 48.4976 0.330372 48.5829 0.201136 48.7235C0.0718999 48.864 0 49.0492 0 49.2417C0 49.4341 0.0718999 49.6194 0.201136 49.7599C0.330372 49.9005 0.507282 49.9858 0.696034 49.9986H42.253C42.3525 50.005 42.4521 49.9898 42.5453 49.954C42.6385 49.9183 42.7231 49.8628 42.7936 49.7912C42.8642 49.7196 42.9189 49.6336 42.9543 49.5389C42.9896 49.4441 43.0048 49.3428 42.9987 49.2417C42.9989 49.1418 42.9798 49.0429 42.9424 48.9506C42.9051 48.8583 42.8502 48.7744 42.781 48.7036C42.7117 48.6329 42.6295 48.5767 42.5389 48.5383C42.4483 48.4999 42.3512 48.48 42.253 48.4798L42.2646 48.473Z" fill="#133F68"/>
</svg>
