<svg width="50" height="50" viewBox="0 0 50 50" fill="none" xmlns="http://www.w3.org/2000/svg">
<path d="M13.2977 31.4322C13.4315 31.3264 13.5388 31.1702 13.6063 30.9833C13.6738 30.7964 13.6983 30.5871 13.6769 30.3816C13.6555 30.1761 13.589 29.9837 13.4859 29.8284C13.3827 29.6731 13.2475 29.5619 13.0972 29.5088C12.9468 29.4556 12.7881 29.4629 12.6408 29.5297C12.4935 29.5965 12.3644 29.7198 12.2695 29.8841C12.1746 30.0485 12.1182 30.2466 12.1074 30.4535C12.0966 30.6605 12.1319 30.8671 12.2088 31.0474C12.2608 31.1688 12.3304 31.2752 12.4135 31.3604C12.4966 31.4456 12.5915 31.5079 12.6929 31.5437C12.7942 31.5795 12.8998 31.5881 13.0037 31.569C13.1075 31.5498 13.2075 31.5034 13.2977 31.4322Z" fill="#133F68"/>
<path d="M2.60506 33.9536C2.28514 33.3977 2.07739 32.7838 1.99371 32.1471C1.91003 31.5103 1.95206 30.8632 2.1174 30.2428C2.28273 29.6225 2.56813 29.041 2.95724 28.5317C3.34635 28.0224 3.83154 27.5953 4.38501 27.2748L11.9636 22.8762L16.8195 31.3434L9.24596 35.7437C8.12901 36.3907 6.80241 36.5657 5.55734 36.2301C4.31228 35.8944 3.25049 35.0757 2.60506 33.9536ZM24.373 7.68316L35.6137 27.2614L18.6464 30.6075L13.489 21.6233L24.373 7.68316ZM26.0006 5.58658C26.0881 5.44092 26.2119 5.32077 26.3597 5.23803C26.5076 5.1553 26.6744 5.11285 26.8436 5.11489C27.0128 5.11693 27.1785 5.16339 27.3243 5.24967C27.4702 5.33595 27.5911 5.45906 27.675 5.60679L38.9843 25.3096C39.0685 25.4564 39.1133 25.6228 39.1144 25.7923C39.1154 25.9618 39.0726 26.1286 38.9902 26.2765C38.9079 26.4244 38.7887 26.5482 38.6444 26.6358C38.5001 26.7235 38.3357 26.7719 38.1672 26.7764C37.9871 26.7932 37.8086 26.8236 37.633 26.8673L25.664 6.0261C25.9152 5.70109 25.947 5.6691 25.9972 5.58658H26.0006ZM36.2014 12.6409L37.541 14.9816L36.342 16.8071L34.0263 12.7655L36.2014 12.6409ZM17.0874 35.7117L16.1163 34.0176L17.8008 33.0408L18.7719 34.7349L17.0874 35.7117ZM19.291 43.4682C19.5488 43.9175 19.6186 44.4514 19.485 44.9524C19.3514 45.4534 19.0253 45.8806 18.5786 46.1398C18.1318 46.3991 17.6009 46.4693 17.1027 46.3349C16.6045 46.2005 16.1798 45.8726 15.922 45.4233L11.0661 36.9528L14.4334 34.9977C20.0546 44.7952 19.2006 43.2998 19.291 43.4682ZM9.3414 37.8655L14.2375 46.395C14.487 46.851 14.8244 47.2524 15.23 47.5756C15.6357 47.8988 16.1014 48.1374 16.5999 48.2773C17.0984 48.4173 17.6196 48.4557 18.133 48.3905C18.6465 48.3253 19.1418 48.1577 19.5901 47.8975C20.0383 47.6373 20.4304 47.2898 20.7434 46.8753C21.0564 46.4608 21.284 45.9876 21.4129 45.4835C21.5417 44.9794 21.5693 44.4546 21.4939 43.9396C21.4185 43.4247 21.2417 42.9301 20.9739 42.4847L18.057 37.4058L20.5837 35.939C20.6943 35.8748 20.7912 35.7894 20.8689 35.6875C20.9466 35.5856 21.0035 35.4693 21.0365 35.3453C21.0695 35.2213 21.0778 35.0919 21.061 34.9647C21.0442 34.8374 21.0027 34.7147 20.9387 34.6036L19.6745 32.4009L38.2978 28.7247C38.7953 28.6969 39.2773 28.5414 39.6981 28.273C40.1188 28.0046 40.4642 27.6323 40.7013 27.1916C40.9383 26.7509 41.0592 26.2565 41.0524 25.7554C41.0455 25.2544 40.9112 24.7635 40.6621 24.3295L37.4304 18.6999L39.495 15.5542C39.5951 15.403 39.6511 15.2267 39.6567 15.0451C39.6624 14.8636 39.6174 14.6841 39.5269 14.5269L37.5828 11.1354C37.4923 10.9781 37.3602 10.8492 37.2011 10.7629C37.0421 10.6767 36.8623 10.6366 36.682 10.647L32.9412 10.8727L29.3528 4.62502C29.1021 4.18281 28.7403 3.81458 28.3037 3.55717C27.867 3.29976 27.3708 3.1622 26.8646 3.15825H26.8261C26.337 3.15541 25.8552 3.27753 25.4258 3.51317C24.9964 3.74881 24.6336 4.09024 24.3713 4.50545L11.6689 20.7881L3.41215 25.5824C1.9191 26.4461 0.807245 27.847 0.300811 29.5026C-0.205624 31.1583 -0.0689532 32.9454 0.683259 34.5037C1.43547 36.062 2.74726 37.2755 4.35406 37.8994C5.96086 38.5232 7.74312 38.5111 9.3414 37.8655Z" fill="#133F68"/>
<path d="M10.3864 32.0628C10.2462 31.8408 10.0152 31.6787 9.74431 31.6122C9.4734 31.5457 9.18469 31.5802 8.94158 31.7081L7.10683 32.6723C6.86361 32.7997 6.57506 32.834 6.3043 32.7675C6.03354 32.701 5.80259 32.5393 5.66198 32.3176C5.52112 32.0952 5.28938 31.9331 5.01773 31.8669C4.74609 31.8007 4.45679 31.8358 4.21349 31.9646C3.97019 32.0933 3.7928 32.3051 3.72037 32.5534C3.64793 32.8016 3.68637 33.066 3.82723 33.2884C4.24864 33.9539 4.94176 34.4393 5.75442 34.6382C6.56709 34.8371 7.43289 34.7331 8.16177 34.3491L9.9947 33.3833C10.2382 33.2557 10.4163 33.0448 10.4898 32.7972C10.5633 32.5496 10.5261 32.2854 10.3864 32.0628Z" fill="#133F68"/>
<path d="M48.55 5.39168L43.1128 8.5987C42.8932 8.7358 42.7329 8.9585 42.666 9.21924C42.5992 9.47998 42.6312 9.75809 42.7551 9.99417C42.8791 10.2302 43.0852 10.4056 43.3295 10.4827C43.5738 10.5599 43.8368 10.5328 44.0624 10.4071L49.4996 7.20008C49.6115 7.13398 49.71 7.04517 49.7895 6.93871C49.8691 6.83224 49.928 6.71022 49.9631 6.5796C49.9981 6.44898 50.0085 6.31233 49.9937 6.17744C49.979 6.04255 49.9393 5.91207 49.8769 5.79344C49.8146 5.67482 49.7308 5.57038 49.6303 5.48608C49.5299 5.40177 49.4148 5.33927 49.2916 5.30213C49.1684 5.26498 49.0395 5.25393 48.9122 5.2696C48.785 5.28527 48.6619 5.32736 48.55 5.39346V5.39168Z" fill="#133F68"/>
<path d="M48.6073 15.3226L44.0994 14.2463C43.9515 14.211 43.7972 14.202 43.6454 14.2199C43.4936 14.2378 43.3472 14.2822 43.2146 14.3505C43.082 14.4189 42.9658 14.5099 42.8726 14.6184C42.7794 14.7269 42.7111 14.8506 42.6715 14.9827C42.6319 15.1147 42.6218 15.2524 42.6419 15.3879C42.6619 15.5234 42.7116 15.6541 42.7882 15.7724C42.8649 15.8908 42.9668 15.9945 43.0884 16.0777C43.2099 16.1608 43.3486 16.2218 43.4965 16.2572L48.0064 17.3335C48.1543 17.3688 48.3086 17.3778 48.4604 17.3599C48.6122 17.342 48.7586 17.2976 48.8912 17.2292C49.0238 17.1609 49.14 17.0698 49.2332 16.9614C49.3264 16.8529 49.3947 16.7291 49.4343 16.5971C49.4739 16.4651 49.484 16.3274 49.4639 16.1919C49.4439 16.0563 49.3941 15.9257 49.3175 15.8073C49.2409 15.689 49.139 15.5853 49.0174 15.5021C48.8959 15.4189 48.7572 15.3579 48.6093 15.3226H48.6073Z" fill="#133F68"/>
<path d="M38.637 2.33263L37.924 6.10856C37.8972 6.23398 37.8886 6.36571 37.8985 6.49595C37.9085 6.62619 37.9368 6.75227 37.9818 6.86671C38.0268 6.98115 38.0876 7.08161 38.1606 7.16212C38.2336 7.24264 38.3173 7.30156 38.4066 7.3354C38.496 7.36924 38.5893 7.37729 38.6809 7.3591C38.7725 7.3409 38.8606 7.29682 38.94 7.22947C39.0193 7.16212 39.0883 7.07287 39.1428 6.96703C39.1973 6.8612 39.2363 6.74093 39.2573 6.61337L39.9704 2.83911C39.9971 2.7137 40.0057 2.58196 39.9958 2.45172C39.9859 2.32149 39.9575 2.1954 39.9125 2.08096C39.8675 1.96653 39.8067 1.86607 39.7337 1.78555C39.6607 1.70504 39.5771 1.64612 39.4877 1.61228C39.3983 1.57844 39.305 1.57038 39.2134 1.58858C39.1218 1.60678 39.0337 1.65086 38.9544 1.71821C38.875 1.78556 38.806 1.87481 38.7515 1.98064C38.697 2.08648 38.658 2.20675 38.637 2.33431V2.33263Z" fill="#133F68"/>
</svg>
