<svg width="50" height="50" viewBox="0 0 50 50" fill="none" xmlns="http://www.w3.org/2000/svg">
<path d="M16.1024 34.1101C15.9656 33.9841 15.8571 33.8344 15.7831 33.6697C15.7091 33.505 15.671 33.3284 15.671 33.1501C15.671 32.9718 15.7091 32.7952 15.7831 32.6305C15.8571 32.4657 15.9656 32.3161 16.1024 32.1901C16.2321 32.062 16.3028 31.8923 16.2995 31.7169C16.2962 31.5416 16.2192 31.3742 16.0847 31.2503C15.9502 31.1264 15.7688 31.0556 15.5788 31.0528C15.3888 31.0501 15.205 31.1156 15.0664 31.2355C13.3597 32.8091 14.5659 35.2633 15.5835 35.2633C15.7283 35.2633 15.8699 35.2238 15.9903 35.1496C16.1108 35.0754 16.2047 34.97 16.2602 34.8465C16.3157 34.7231 16.3304 34.5873 16.3023 34.4562C16.2742 34.3251 16.2046 34.2047 16.1024 34.1101Z" fill="#133F68"/>
<path d="M14.0364 35.1735C13.5619 34.6384 13.2955 33.9136 13.2955 33.1579C13.2955 32.4022 13.5619 31.6774 14.0364 31.1423C14.0917 31.0802 14.1355 31.0064 14.1654 30.9252C14.1953 30.8441 14.2107 30.757 14.2107 30.6692C14.2107 30.5813 14.1953 30.4943 14.1654 30.4131C14.1355 30.3319 14.0917 30.2581 14.0364 30.196C13.9812 30.1339 13.9156 30.0846 13.8434 30.0509C13.7712 30.0173 13.6938 30 13.6157 30C13.5375 30 13.4602 30.0173 13.388 30.0509C13.3158 30.0846 13.2502 30.1339 13.1949 30.196C12.4973 30.9821 12.1055 32.0473 12.1055 33.1579C12.1055 34.2685 12.4973 35.3337 13.1949 36.1198C13.3065 36.2453 13.4579 36.3158 13.6157 36.3158C13.7735 36.3158 13.9249 36.2453 14.0364 36.1198C14.148 35.9943 14.2107 35.8241 14.2107 35.6466C14.2107 35.4692 14.148 35.2989 14.0364 35.1735Z" fill="#133F68"/>
<path d="M12.4466 36.2157C11.6889 35.4041 11.2633 34.3043 11.2633 33.1578C11.2633 32.0112 11.6889 30.9115 12.4466 30.0999C12.5052 30.0372 12.5517 29.9628 12.5835 29.8808C12.6152 29.7989 12.6316 29.7111 12.6316 29.6225C12.6316 29.5338 12.6152 29.446 12.5835 29.3641C12.5517 29.2822 12.5052 29.2077 12.4466 29.145C12.3879 29.0823 12.3183 29.0326 12.2416 28.9987C12.165 28.9647 12.0828 28.9473 11.9999 28.9473C11.9169 28.9473 11.8348 28.9647 11.7581 28.9987C11.6815 29.0326 11.6118 29.0823 11.5532 29.145C10.5586 30.2099 10 31.6531 10 33.1578C10 34.6625 10.5586 36.1057 11.5532 37.1706C11.6716 37.2972 11.8323 37.3683 11.9999 37.3683C12.1674 37.3683 12.3281 37.2972 12.4466 37.1706C12.565 37.0439 12.6316 36.8722 12.6316 36.6931C12.6316 36.514 12.565 36.3423 12.4466 36.2157Z" fill="#133F68"/>
<path d="M19.7247 14.9662C21.4405 12.3565 24.448 10.7569 27.7089 10.7569C32.8959 10.7569 37.1173 14.7714 37.1173 19.7054C37.1173 23.4079 35.4778 22.8417 34.8799 30.0717L19.7247 14.9662ZM45.1247 25.8988C44.9329 25.8832 44.7427 25.9439 44.5956 26.0676C44.4486 26.1913 44.3566 26.368 44.3397 26.5591C44.0547 29.972 42.8565 33.2463 40.8701 36.0407L36.2446 31.4319C36.6834 23.19 38.5631 24.0665 38.5631 19.712C38.5631 13.9791 33.6908 9.31259 27.7006 9.31259C25.934 9.30345 24.1912 9.71874 22.6198 10.5233C21.0484 11.3278 19.6946 12.4979 18.6731 13.9345L13.9399 9.19704C26.1853 0.544086 43.1125 8.70183 44.3397 23.2989C44.3557 23.49 44.4473 23.667 44.5942 23.7908C44.7411 23.9146 44.9313 23.9752 45.123 23.9592C45.3148 23.9432 45.4923 23.852 45.6165 23.7056C45.7407 23.5592 45.8015 23.3695 45.7855 23.1784C44.4109 6.81343 25.3257 -1.4351 12.3881 8.54336C12.3063 8.60615 12.239 8.6856 12.1905 8.7764C12.142 8.8672 12.1135 8.96727 12.1069 9.06992C12.1004 9.17257 12.1158 9.27544 12.1523 9.37165C12.1888 9.46787 12.2455 9.55522 12.3185 9.62787L18.2938 15.5836C42.2199 39.4312 40.519 37.8944 40.9976 37.8663C41.1007 37.8598 41.2011 37.8314 41.2923 37.783C41.3834 37.7346 41.4631 37.6674 41.5259 37.5857C43.9751 34.4366 45.4553 30.647 45.7872 26.6763C45.7951 26.5816 45.7843 26.4864 45.7553 26.3959C45.7263 26.3055 45.6797 26.2216 45.6182 26.1491C45.5567 26.0766 45.4814 26.0169 45.3968 25.9734C45.3121 25.9299 45.2196 25.9034 45.1247 25.8955V25.8988Z" fill="#133F68"/>
<path d="M24.8436 44.8481C21.1402 44.8471 17.5122 43.8009 14.3764 41.8299C11.2407 39.8588 8.72456 37.0428 7.11706 33.7054C5.50957 30.368 4.87598 26.6446 5.2891 22.9631C5.70222 19.2817 7.14529 15.7915 9.45247 12.8937L16.4497 19.893C16.4545 20.6081 16.5342 21.3207 16.6875 22.0192C16.6875 22.3786 16.6403 24.5503 14.4946 26.8688C13.7051 27.7226 13.3407 29.7593 16.4261 30.0141L16.367 31.4754C16.3625 31.6131 16.3965 31.7493 16.4654 31.8686C16.5343 31.9879 16.6352 32.0855 16.7567 32.1503L18.4267 33.0447L17.0502 33.8209C16.8815 33.9161 16.7569 34.0738 16.7032 34.26C16.6496 34.4462 16.6712 34.646 16.7634 34.8164L17.148 35.5302C17.0907 37.523 18.145 39.0738 20.1743 39.0738C21.5592 39.0738 22.8733 38.4157 23.9091 37.9348C23.9091 37.9634 23.9091 38.3094 23.9091 38.338C23.9513 39.1564 24.518 39.7048 25.3227 39.7048C25.3699 39.7048 34.7861 39.7048 34.8334 39.7048C35.2055 39.6849 35.5574 39.5288 35.8219 39.2661L37.1174 40.5604C33.6303 43.34 29.3025 44.8519 24.8436 44.8481ZM18.0961 21.5382L34.7524 38.1997C34.7524 38.1997 34.7524 38.2115 34.7524 38.2182C34.722 38.2182 25.4138 38.2182 25.3834 38.2182V37.761C25.3834 36.5966 24.4219 36.0735 23.3423 36.5713C22.5967 36.9172 20.0562 38.2689 19.0846 37.2007C18.6241 36.6945 18.6005 35.7648 18.6308 35.4526C18.6578 35.1792 18.5431 35.0223 18.4048 34.7658L19.5468 34.1229C20.6045 33.5256 20.4206 32.4355 19.5316 31.9732L17.8582 31.0788C17.9341 29.2379 18.0067 29.0928 17.7233 28.7975C17.6545 28.7253 17.5718 28.668 17.4801 28.6288C17.3885 28.5897 17.2899 28.5695 17.1902 28.5697C15.672 28.5697 15.419 28.2457 15.419 28.2457C15.4391 28.1055 15.4975 27.9735 15.5877 27.8643C17.725 25.5425 18.3626 22.8629 18.0978 21.5416L18.0961 21.5382ZM36.0074 37.3661C35.8674 37.2244 10.5608 11.9082 9.92649 11.2687C9.85445 11.197 9.76847 11.1409 9.67389 11.1039C9.5793 11.0668 9.47811 11.0496 9.37659 11.0532C9.27506 11.0568 9.17537 11.0813 9.08367 11.125C8.99198 11.1688 8.91024 11.2309 8.84351 11.3075C1.73835 19.5201 1.86824 32.1149 9.88094 40.1233C17.8936 48.1317 30.4981 48.26 38.6913 41.1611C38.7678 41.0946 38.8299 41.0132 38.8737 40.9217C38.9176 40.8303 38.9421 40.7309 38.946 40.6295C38.9612 40.206 38.9426 40.3005 36.0074 37.3661Z" fill="#133F68"/>
<path d="M42.6774 7.32918C39.1811 3.82962 34.7266 1.44638 29.877 0.480839C25.0275 -0.484701 20.0008 0.010829 15.4327 1.90476C10.8645 3.7987 6.96005 7.00597 4.21305 11.121C1.46606 15.236 -9.71494e-05 20.074 4.82811e-09 25.023C4.82811e-09 38.2407 10.3173 49.2095 23.4895 49.9987C23.6834 50.0102 23.8738 49.9442 24.019 49.8152C24.1643 49.6862 24.2523 49.5047 24.2638 49.3107C24.2753 49.1166 24.2094 48.926 24.0805 48.7806C23.9516 48.6353 23.7702 48.5472 23.5764 48.5356C11.1776 47.7949 1.46507 37.4666 1.46507 25.023C1.46507 12.0344 12.0229 1.46691 24.9997 1.46691C37.9765 1.46691 48.5343 12.0344 48.5343 25.023C48.5343 37.2291 39.0273 47.5358 26.8924 48.5022C26.7016 48.5216 26.5261 48.6151 26.4033 48.7625C26.2805 48.91 26.2203 49.0997 26.2356 49.291C26.2509 49.4823 26.3405 49.6601 26.4851 49.7861C26.6297 49.9121 26.8179 49.9764 27.0094 49.9653C31.7674 49.581 36.316 47.8414 40.1178 44.9521C43.9195 42.0628 46.8154 38.1445 48.4632 33.6604C50.111 29.1762 50.4418 24.3137 49.4165 19.6473C48.3912 14.981 46.0527 10.706 42.6774 7.32751V7.32918Z" fill="#133F68"/>
</svg>
